<svg width="375" height="118" viewBox="0 0 375 118" fill="none" xmlns="http://www.w3.org/2000/svg">
<g clip-path="url(#clip0)">
<path d="M0 0H375V118H0V0Z" fill="#47637B"/>
<path d="M282.366 95.138L339.495 133.737C344.387 137.042 344.126 144.359 339.011 147.33L298.99 170.566C293.874 173.536 287.442 170.105 287.042 164.192L282.366 95.138Z" fill="#D4E2EE"/>
<path d="M281.634 93.8619L276.958 24.8083C276.558 18.8953 270.126 15.4635 265.011 18.4336L224.99 41.6704C219.874 44.6404 219.613 51.9581 224.505 55.2633L281.634 93.8619Z" fill="#F0F6FA"/>
<path d="M281.267 94.4999L219.536 124.919C214.22 127.539 208 123.67 208 117.743V71.2567C208 65.3299 214.22 61.4609 219.536 64.0806L281.267 94.4999Z" fill="#B9CFE3"/>
<path d="M282.733 94.4999L344.464 124.919C349.78 127.539 356 123.67 356 117.743V71.2567C356 65.3299 349.78 61.4609 344.464 64.0806L282.733 94.4999Z" fill="#AAC6DD"/>
<path d="M282.367 93.8619L287.042 24.8082C287.442 18.8953 293.874 15.4635 298.99 18.4336L339.011 41.6703C344.126 44.6404 344.387 51.9581 339.495 55.2633L282.367 93.8619Z" fill="#C7D9E8"/>
<path d="M281.634 95.1381L224.505 133.737C219.614 137.042 219.874 144.36 224.99 147.33L265.011 170.566C270.126 173.537 276.558 170.105 276.959 164.192L281.634 95.1381Z" fill="#8FB4D1"/>
<path d="M36.732 42.15L35.416 43.522V46H33.162V36.2H35.416V40.778L39.756 36.2H42.276L38.216 40.568L42.514 46H39.868L36.732 42.15ZM50.4348 42.262C50.4348 42.29 50.4208 42.486 50.3928 42.85H44.6948C44.7975 43.3167 45.0402 43.6853 45.4228 43.956C45.8055 44.2267 46.2815 44.362 46.8508 44.362C47.2428 44.362 47.5882 44.306 47.8868 44.194C48.1948 44.0727 48.4795 43.886 48.7408 43.634L49.9028 44.894C49.1935 45.706 48.1575 46.112 46.7948 46.112C45.9455 46.112 45.1942 45.9487 44.5408 45.622C43.8875 45.286 43.3835 44.824 43.0288 44.236C42.6742 43.648 42.4968 42.9807 42.4968 42.234C42.4968 41.4967 42.6695 40.834 43.0148 40.246C43.3695 39.6487 43.8502 39.1867 44.4568 38.86C45.0728 38.524 45.7588 38.356 46.5148 38.356C47.2522 38.356 47.9195 38.5147 48.5168 38.832C49.1142 39.1493 49.5808 39.6067 49.9168 40.204C50.2622 40.792 50.4348 41.478 50.4348 42.262ZM46.5288 40.008C46.0342 40.008 45.6188 40.148 45.2828 40.428C44.9468 40.708 44.7415 41.0907 44.6668 41.576H48.3768C48.3022 41.1 48.0968 40.722 47.7608 40.442C47.4248 40.1527 47.0142 40.008 46.5288 40.008ZM59.2669 42.262C59.2669 42.29 59.2529 42.486 59.2249 42.85H53.5269C53.6295 43.3167 53.8722 43.6853 54.2549 43.956C54.6375 44.2267 55.1135 44.362 55.6829 44.362C56.0749 44.362 56.4202 44.306 56.7189 44.194C57.0269 44.0727 57.3115 43.886 57.5729 43.634L58.7349 44.894C58.0255 45.706 56.9895 46.112 55.6269 46.112C54.7775 46.112 54.0262 45.9487 53.3729 45.622C52.7195 45.286 52.2155 44.824 51.8609 44.236C51.5062 43.648 51.3289 42.9807 51.3289 42.234C51.3289 41.4967 51.5015 40.834 51.8469 40.246C52.2015 39.6487 52.6822 39.1867 53.2889 38.86C53.9049 38.524 54.5909 38.356 55.3469 38.356C56.0842 38.356 56.7515 38.5147 57.3489 38.832C57.9462 39.1493 58.4129 39.6067 58.7489 40.204C59.0942 40.792 59.2669 41.478 59.2669 42.262ZM55.3609 40.008C54.8662 40.008 54.4509 40.148 54.1149 40.428C53.7789 40.708 53.5735 41.0907 53.4989 41.576H57.2089C57.1342 41.1 56.9289 40.722 56.5929 40.442C56.2569 40.1527 55.8462 40.008 55.3609 40.008ZM65.1729 38.356C65.8729 38.356 66.5076 38.5193 67.0769 38.846C67.6556 39.1633 68.1082 39.616 68.4349 40.204C68.7616 40.7827 68.9249 41.4593 68.9249 42.234C68.9249 43.0087 68.7616 43.69 68.4349 44.278C68.1082 44.8567 67.6556 45.3093 67.0769 45.636C66.5076 45.9533 65.8729 46.112 65.1729 46.112C64.2116 46.112 63.4556 45.8087 62.9049 45.202V48.716H60.7209V38.468H62.8069V39.336C63.3482 38.6827 64.1369 38.356 65.1729 38.356ZM64.7949 44.32C65.3549 44.32 65.8122 44.1333 66.1669 43.76C66.5309 43.3773 66.7129 42.8687 66.7129 42.234C66.7129 41.5993 66.5309 41.0953 66.1669 40.722C65.8122 40.3393 65.3549 40.148 64.7949 40.148C64.2349 40.148 63.7729 40.3393 63.4089 40.722C63.0542 41.0953 62.8769 41.5993 62.8769 42.234C62.8769 42.8687 63.0542 43.3773 63.4089 43.76C63.7729 44.1333 64.2349 44.32 64.7949 44.32ZM74.3518 35.612H76.5358V46H74.3518V35.612ZM85.9407 42.262C85.9407 42.29 85.9267 42.486 85.8987 42.85H80.2007C80.3034 43.3167 80.546 43.6853 80.9287 43.956C81.3114 44.2267 81.7874 44.362 82.3567 44.362C82.7487 44.362 83.094 44.306 83.3927 44.194C83.7007 44.0727 83.9854 43.886 84.2467 43.634L85.4087 44.894C84.6994 45.706 83.6634 46.112 82.3007 46.112C81.4514 46.112 80.7 45.9487 80.0467 45.622C79.3934 45.286 78.8894 44.824 78.5347 44.236C78.18 43.648 78.0027 42.9807 78.0027 42.234C78.0027 41.4967 78.1754 40.834 78.5207 40.246C78.8754 39.6487 79.356 39.1867 79.9627 38.86C80.5787 38.524 81.2647 38.356 82.0207 38.356C82.758 38.356 83.4254 38.5147 84.0227 38.832C84.62 39.1493 85.0867 39.6067 85.4227 40.204C85.768 40.792 85.9407 41.478 85.9407 42.262ZM82.0347 40.008C81.54 40.008 81.1247 40.148 80.7887 40.428C80.4527 40.708 80.2474 41.0907 80.1727 41.576H83.8827C83.808 41.1 83.6027 40.722 83.2667 40.442C82.9307 40.1527 82.52 40.008 82.0347 40.008ZM90.2276 38.356C91.3943 38.356 92.2903 38.636 92.9156 39.196C93.541 39.7467 93.8536 40.582 93.8536 41.702V46H91.8096V45.062C91.399 45.762 90.6336 46.112 89.5136 46.112C88.935 46.112 88.431 46.014 88.0016 45.818C87.5816 45.622 87.2596 45.3513 87.0356 45.006C86.8116 44.6607 86.6996 44.2687 86.6996 43.83C86.6996 43.13 86.961 42.5793 87.4836 42.178C88.0156 41.7767 88.8323 41.576 89.9336 41.576H91.6696C91.6696 41.1 91.525 40.736 91.2356 40.484C90.9463 40.2227 90.5123 40.092 89.9336 40.092C89.5323 40.092 89.1356 40.1573 88.7436 40.288C88.361 40.4093 88.0343 40.5773 87.7636 40.792L86.9796 39.266C87.3903 38.9767 87.8803 38.7527 88.4496 38.594C89.0283 38.4353 89.621 38.356 90.2276 38.356ZM90.0596 44.642C90.433 44.642 90.7643 44.558 91.0536 44.39C91.343 44.2127 91.5483 43.956 91.6696 43.62V42.85H90.1716C89.2756 42.85 88.8276 43.144 88.8276 43.732C88.8276 44.012 88.935 44.236 89.1496 44.404C89.3736 44.5627 89.677 44.642 90.0596 44.642ZM97.9163 39.462C98.1776 39.098 98.5276 38.8227 98.9663 38.636C99.4143 38.4493 99.9276 38.356 100.506 38.356V40.372C100.264 40.3533 100.1 40.344 100.016 40.344C99.3909 40.344 98.9009 40.5213 98.5463 40.876C98.1916 41.2213 98.0143 41.744 98.0143 42.444V46H95.8303V38.468H97.9163V39.462ZM106.383 38.356C107.316 38.356 108.068 38.636 108.637 39.196C109.216 39.756 109.505 40.5867 109.505 41.688V46H107.321V42.024C107.321 41.4267 107.19 40.9833 106.929 40.694C106.668 40.3953 106.29 40.246 105.795 40.246C105.244 40.246 104.806 40.4187 104.479 40.764C104.152 41.1 103.989 41.604 103.989 42.276V46H101.805V38.468H103.891V39.35C104.18 39.0327 104.54 38.79 104.969 38.622C105.398 38.4447 105.87 38.356 106.383 38.356ZM111.485 38.468H113.669V46H111.485V38.468ZM112.577 37.418C112.175 37.418 111.849 37.3013 111.597 37.068C111.345 36.8347 111.219 36.5453 111.219 36.2C111.219 35.8547 111.345 35.5653 111.597 35.332C111.849 35.0987 112.175 34.982 112.577 34.982C112.978 34.982 113.305 35.094 113.557 35.318C113.809 35.542 113.935 35.822 113.935 36.158C113.935 36.522 113.809 36.8253 113.557 37.068C113.305 37.3013 112.978 37.418 112.577 37.418ZM120.274 38.356C121.207 38.356 121.958 38.636 122.528 39.196C123.106 39.756 123.396 40.5867 123.396 41.688V46H121.212V42.024C121.212 41.4267 121.081 40.9833 120.82 40.694C120.558 40.3953 120.18 40.246 119.686 40.246C119.135 40.246 118.696 40.4187 118.37 40.764C118.043 41.1 117.88 41.604 117.88 42.276V46H115.696V38.468H117.782V39.35C118.071 39.0327 118.43 38.79 118.86 38.622C119.289 38.4447 119.76 38.356 120.274 38.356ZM133.227 38.468V44.74C133.227 46.1213 132.868 47.148 132.149 47.82C131.431 48.492 130.381 48.828 128.999 48.828C128.271 48.828 127.581 48.7393 126.927 48.562C126.274 48.3847 125.733 48.128 125.303 47.792L126.171 46.224C126.489 46.4853 126.89 46.6907 127.375 46.84C127.861 46.9987 128.346 47.078 128.831 47.078C129.587 47.078 130.143 46.9053 130.497 46.56C130.861 46.224 131.043 45.7107 131.043 45.02V44.698C130.474 45.3233 129.681 45.636 128.663 45.636C127.973 45.636 127.338 45.4867 126.759 45.188C126.19 44.88 125.737 44.4507 125.401 43.9C125.065 43.3493 124.897 42.7147 124.897 41.996C124.897 41.2773 125.065 40.6427 125.401 40.092C125.737 39.5413 126.19 39.1167 126.759 38.818C127.338 38.51 127.973 38.356 128.663 38.356C129.755 38.356 130.586 38.7153 131.155 39.434V38.468H133.227ZM129.097 43.844C129.676 43.844 130.147 43.676 130.511 43.34C130.885 42.9947 131.071 42.5467 131.071 41.996C131.071 41.4453 130.885 41.002 130.511 40.666C130.147 40.3207 129.676 40.148 129.097 40.148C128.519 40.148 128.043 40.3207 127.669 40.666C127.296 41.002 127.109 41.4453 127.109 41.996C127.109 42.5467 127.296 42.9947 127.669 43.34C128.043 43.676 128.519 43.844 129.097 43.844ZM136.086 46.112C135.703 46.112 135.381 45.9813 135.12 45.72C134.859 45.4587 134.728 45.132 134.728 44.74C134.728 44.3387 134.859 44.0167 135.12 43.774C135.381 43.522 135.703 43.396 136.086 43.396C136.469 43.396 136.791 43.522 137.052 43.774C137.313 44.0167 137.444 44.3387 137.444 44.74C137.444 45.132 137.313 45.4587 137.052 45.72C136.791 45.9813 136.469 46.112 136.086 46.112ZM146.613 42.15L145.297 43.522V46H143.043V36.2H145.297V40.778L149.637 36.2H152.157L148.097 40.568L152.395 46H149.749L146.613 42.15ZM160.316 42.262C160.316 42.29 160.302 42.486 160.274 42.85H154.576C154.678 43.3167 154.921 43.6853 155.304 43.956C155.686 44.2267 156.162 44.362 156.732 44.362C157.124 44.362 157.469 44.306 157.768 44.194C158.076 44.0727 158.36 43.886 158.622 43.634L159.784 44.894C159.074 45.706 158.038 46.112 156.676 46.112C155.826 46.112 155.075 45.9487 154.422 45.622C153.768 45.286 153.264 44.824 152.91 44.236C152.555 43.648 152.378 42.9807 152.378 42.234C152.378 41.4967 152.55 40.834 152.896 40.246C153.25 39.6487 153.731 39.1867 154.338 38.86C154.954 38.524 155.64 38.356 156.396 38.356C157.133 38.356 157.8 38.5147 158.398 38.832C158.995 39.1493 159.462 39.6067 159.798 40.204C160.143 40.792 160.316 41.478 160.316 42.262ZM156.41 40.008C155.915 40.008 155.5 40.148 155.164 40.428C154.828 40.708 154.622 41.0907 154.548 41.576H158.258C158.183 41.1 157.978 40.722 157.642 40.442C157.306 40.1527 156.895 40.008 156.41 40.008ZM169.148 42.262C169.148 42.29 169.134 42.486 169.106 42.85H163.408C163.51 43.3167 163.753 43.6853 164.136 43.956C164.518 44.2267 164.994 44.362 165.564 44.362C165.956 44.362 166.301 44.306 166.6 44.194C166.908 44.0727 167.192 43.886 167.454 43.634L168.616 44.894C167.906 45.706 166.87 46.112 165.508 46.112C164.658 46.112 163.907 45.9487 163.254 45.622C162.6 45.286 162.096 44.824 161.742 44.236C161.387 43.648 161.21 42.9807 161.21 42.234C161.21 41.4967 161.382 40.834 161.728 40.246C162.082 39.6487 162.563 39.1867 163.17 38.86C163.786 38.524 164.472 38.356 165.228 38.356C165.965 38.356 166.632 38.5147 167.23 38.832C167.827 39.1493 168.294 39.6067 168.63 40.204C168.975 40.792 169.148 41.478 169.148 42.262ZM165.242 40.008C164.747 40.008 164.332 40.148 163.996 40.428C163.66 40.708 163.454 41.0907 163.38 41.576H167.09C167.015 41.1 166.81 40.722 166.474 40.442C166.138 40.1527 165.727 40.008 165.242 40.008ZM175.054 38.356C175.754 38.356 176.388 38.5193 176.958 38.846C177.536 39.1633 177.989 39.616 178.316 40.204C178.642 40.7827 178.806 41.4593 178.806 42.234C178.806 43.0087 178.642 43.69 178.316 44.278C177.989 44.8567 177.536 45.3093 176.958 45.636C176.388 45.9533 175.754 46.112 175.054 46.112C174.092 46.112 173.336 45.8087 172.786 45.202V48.716H170.602V38.468H172.688V39.336C173.229 38.6827 174.018 38.356 175.054 38.356ZM174.676 44.32C175.236 44.32 175.693 44.1333 176.048 43.76C176.412 43.3773 176.594 42.8687 176.594 42.234C176.594 41.5993 176.412 41.0953 176.048 40.722C175.693 40.3393 175.236 40.148 174.676 40.148C174.116 40.148 173.654 40.3393 173.29 40.722C172.935 41.0953 172.758 41.5993 172.758 42.234C172.758 42.8687 172.935 43.3773 173.29 43.76C173.654 44.1333 174.116 44.32 174.676 44.32ZM40.778 56.468V62.74C40.778 64.1213 40.4187 65.148 39.7 65.82C38.9813 66.492 37.9313 66.828 36.55 66.828C35.822 66.828 35.1313 66.7393 34.478 66.562C33.8247 66.3847 33.2833 66.128 32.854 65.792L33.722 64.224C34.0393 64.4853 34.4407 64.6907 34.926 64.84C35.4113 64.9987 35.8967 65.078 36.382 65.078C37.138 65.078 37.6933 64.9053 38.048 64.56C38.412 64.224 38.594 63.7107 38.594 63.02V62.698C38.0247 63.3233 37.2313 63.636 36.214 63.636C35.5233 63.636 34.8887 63.4867 34.31 63.188C33.7407 62.88 33.288 62.4507 32.952 61.9C32.616 61.3493 32.448 60.7147 32.448 59.996C32.448 59.2773 32.616 58.6427 32.952 58.092C33.288 57.5413 33.7407 57.1167 34.31 56.818C34.8887 56.51 35.5233 56.356 36.214 56.356C37.306 56.356 38.1367 56.7153 38.706 57.434V56.468H40.778ZM36.648 61.844C37.2267 61.844 37.698 61.676 38.062 61.34C38.4353 60.9947 38.622 60.5467 38.622 59.996C38.622 59.4453 38.4353 59.002 38.062 58.666C37.698 58.3207 37.2267 58.148 36.648 58.148C36.0693 58.148 35.5933 58.3207 35.22 58.666C34.8467 59.002 34.66 59.4453 34.66 59.996C34.66 60.5467 34.8467 60.9947 35.22 61.34C35.5933 61.676 36.0693 61.844 36.648 61.844ZM44.8967 57.462C45.1581 57.098 45.5081 56.8227 45.9467 56.636C46.3947 56.4493 46.9081 56.356 47.4867 56.356V58.372C47.2441 58.3533 47.0807 58.344 46.9967 58.344C46.3714 58.344 45.8814 58.5213 45.5267 58.876C45.1721 59.2213 44.9947 59.744 44.9947 60.444V64H42.8107V56.468H44.8967V57.462ZM52.301 64.112C51.5077 64.112 50.7937 63.9487 50.159 63.622C49.5337 63.286 49.0437 62.824 48.689 62.236C48.3343 61.648 48.157 60.9807 48.157 60.234C48.157 59.4873 48.3343 58.82 48.689 58.232C49.0437 57.644 49.5337 57.1867 50.159 56.86C50.7937 56.524 51.5077 56.356 52.301 56.356C53.0943 56.356 53.8037 56.524 54.429 56.86C55.0543 57.1867 55.5443 57.644 55.899 58.232C56.2537 58.82 56.431 59.4873 56.431 60.234C56.431 60.9807 56.2537 61.648 55.899 62.236C55.5443 62.824 55.0543 63.286 54.429 63.622C53.8037 63.9487 53.0943 64.112 52.301 64.112ZM52.301 62.32C52.861 62.32 53.3183 62.1333 53.673 61.76C54.037 61.3773 54.219 60.8687 54.219 60.234C54.219 59.5993 54.037 59.0953 53.673 58.722C53.3183 58.3393 52.861 58.148 52.301 58.148C51.741 58.148 51.279 58.3393 50.915 58.722C50.551 59.0953 50.369 59.5993 50.369 60.234C50.369 60.8687 50.551 61.3773 50.915 61.76C51.279 62.1333 51.741 62.32 52.301 62.32ZM69.7817 56.468L67.0517 64H64.9517L63.2577 59.324L61.5077 64H59.4077L56.6917 56.468H58.7497L60.5277 61.564L62.3757 56.468H64.2237L66.0157 61.564L67.8497 56.468H69.7817ZM70.7971 56.468H72.9811V64H70.7971V56.468ZM71.8891 55.418C71.4877 55.418 71.1611 55.3013 70.9091 55.068C70.6571 54.8347 70.5311 54.5453 70.5311 54.2C70.5311 53.8547 70.6571 53.5653 70.9091 53.332C71.1611 53.0987 71.4877 52.982 71.8891 52.982C72.2904 52.982 72.6171 53.094 72.8691 53.318C73.1211 53.542 73.2471 53.822 73.2471 54.158C73.2471 54.522 73.1211 54.8253 72.8691 55.068C72.6171 55.3013 72.2904 55.418 71.8891 55.418ZM79.586 56.356C80.5193 56.356 81.2707 56.636 81.84 57.196C82.4187 57.756 82.708 58.5867 82.708 59.688V64H80.524V60.024C80.524 59.4267 80.3933 58.9833 80.132 58.694C79.8707 58.3953 79.4927 58.246 78.998 58.246C78.4473 58.246 78.0087 58.4187 77.682 58.764C77.3553 59.1 77.192 59.604 77.192 60.276V64H75.008V56.468H77.094V57.35C77.3833 57.0327 77.7427 56.79 78.172 56.622C78.6013 56.4447 79.0727 56.356 79.586 56.356ZM92.5397 56.468V62.74C92.5397 64.1213 92.1804 65.148 91.4617 65.82C90.7431 66.492 89.6931 66.828 88.3117 66.828C87.5837 66.828 86.8931 66.7393 86.2397 66.562C85.5864 66.3847 85.0451 66.128 84.6157 65.792L85.4837 64.224C85.8011 64.4853 86.2024 64.6907 86.6877 64.84C87.1731 64.9987 87.6584 65.078 88.1437 65.078C88.8997 65.078 89.4551 64.9053 89.8097 64.56C90.1737 64.224 90.3557 63.7107 90.3557 63.02V62.698C89.7864 63.3233 88.9931 63.636 87.9757 63.636C87.2851 63.636 86.6504 63.4867 86.0717 63.188C85.5024 62.88 85.0497 62.4507 84.7137 61.9C84.3777 61.3493 84.2097 60.7147 84.2097 59.996C84.2097 59.2773 84.3777 58.6427 84.7137 58.092C85.0497 57.5413 85.5024 57.1167 86.0717 56.818C86.6504 56.51 87.2851 56.356 87.9757 56.356C89.0677 56.356 89.8984 56.7153 90.4677 57.434V56.468H92.5397ZM88.4097 61.844C88.9884 61.844 89.4597 61.676 89.8237 61.34C90.1971 60.9947 90.3837 60.5467 90.3837 59.996C90.3837 59.4453 90.1971 59.002 89.8237 58.666C89.4597 58.3207 88.9884 58.148 88.4097 58.148C87.8311 58.148 87.3551 58.3207 86.9817 58.666C86.6084 59.002 86.4217 59.4453 86.4217 59.996C86.4217 60.5467 86.6084 60.9947 86.9817 61.34C87.3551 61.676 87.8311 61.844 88.4097 61.844ZM95.3985 64.112C95.0158 64.112 94.6938 63.9813 94.4325 63.72C94.1711 63.4587 94.0405 63.132 94.0405 62.74C94.0405 62.3387 94.1711 62.0167 94.4325 61.774C94.6938 61.522 95.0158 61.396 95.3985 61.396C95.7811 61.396 96.1031 61.522 96.3645 61.774C96.6258 62.0167 96.7565 62.3387 96.7565 62.74C96.7565 63.132 96.6258 63.4587 96.3645 63.72C96.1031 63.9813 95.7811 64.112 95.3985 64.112ZM109.551 58.904C110.111 59.0813 110.55 59.38 110.867 59.8C111.185 60.2107 111.343 60.7193 111.343 61.326C111.343 62.1847 111.007 62.8473 110.335 63.314C109.673 63.7713 108.702 64 107.423 64H102.355V54.2H107.143C108.338 54.2 109.253 54.4287 109.887 54.886C110.531 55.3433 110.853 55.964 110.853 56.748C110.853 57.224 110.737 57.6487 110.503 58.022C110.279 58.3953 109.962 58.6893 109.551 58.904ZM104.609 55.908V58.218H106.863C107.423 58.218 107.848 58.12 108.137 57.924C108.427 57.728 108.571 57.4387 108.571 57.056C108.571 56.6733 108.427 56.3887 108.137 56.202C107.848 56.006 107.423 55.908 106.863 55.908H104.609ZM107.255 62.292C107.853 62.292 108.301 62.194 108.599 61.998C108.907 61.802 109.061 61.4987 109.061 61.088C109.061 60.276 108.459 59.87 107.255 59.87H104.609V62.292H107.255ZM120.284 60.262C120.284 60.29 120.27 60.486 120.242 60.85H114.544C114.647 61.3167 114.89 61.6853 115.272 61.956C115.655 62.2267 116.131 62.362 116.7 62.362C117.092 62.362 117.438 62.306 117.736 62.194C118.044 62.0727 118.329 61.886 118.59 61.634L119.752 62.894C119.043 63.706 118.007 64.112 116.644 64.112C115.795 64.112 115.044 63.9487 114.39 63.622C113.737 63.286 113.233 62.824 112.878 62.236C112.524 61.648 112.346 60.9807 112.346 60.234C112.346 59.4967 112.519 58.834 112.864 58.246C113.219 57.6487 113.7 57.1867 114.306 56.86C114.922 56.524 115.608 56.356 116.364 56.356C117.102 56.356 117.769 56.5147 118.366 56.832C118.964 57.1493 119.43 57.6067 119.766 58.204C120.112 58.792 120.284 59.478 120.284 60.262ZM116.378 58.008C115.884 58.008 115.468 58.148 115.132 58.428C114.796 58.708 114.591 59.0907 114.516 59.576H118.226C118.152 59.1 117.946 58.722 117.61 58.442C117.274 58.1527 116.864 58.008 116.378 58.008ZM130.561 63.636C130.347 63.7947 130.081 63.916 129.763 64C129.455 64.0747 129.129 64.112 128.783 64.112C127.887 64.112 127.192 63.8833 126.697 63.426C126.212 62.9687 125.969 62.2967 125.969 61.41V58.316H124.807V56.636H125.969V54.802H128.153V56.636H130.029V58.316H128.153V61.382C128.153 61.6993 128.233 61.9467 128.391 62.124C128.559 62.292 128.793 62.376 129.091 62.376C129.437 62.376 129.731 62.2827 129.973 62.096L130.561 63.636ZM136.365 56.356C137.299 56.356 138.05 56.636 138.619 57.196C139.198 57.756 139.487 58.5867 139.487 59.688V64H137.303V60.024C137.303 59.4267 137.173 58.9833 136.911 58.694C136.65 58.3953 136.272 58.246 135.777 58.246C135.227 58.246 134.788 58.4187 134.461 58.764C134.135 59.1 133.971 59.604 133.971 60.276V64H131.787V53.612H133.971V57.252C134.261 56.9627 134.611 56.7433 135.021 56.594C135.432 56.4353 135.88 56.356 136.365 56.356ZM148.927 60.262C148.927 60.29 148.913 60.486 148.885 60.85H143.187C143.29 61.3167 143.532 61.6853 143.915 61.956C144.298 62.2267 144.774 62.362 145.343 62.362C145.735 62.362 146.08 62.306 146.379 62.194C146.687 62.0727 146.972 61.886 147.233 61.634L148.395 62.894C147.686 63.706 146.65 64.112 145.287 64.112C144.438 64.112 143.686 63.9487 143.033 63.622C142.38 63.286 141.876 62.824 141.521 62.236C141.166 61.648 140.989 60.9807 140.989 60.234C140.989 59.4967 141.162 58.834 141.507 58.246C141.862 57.6487 142.342 57.1867 142.949 56.86C143.565 56.524 144.251 56.356 145.007 56.356C145.744 56.356 146.412 56.5147 147.009 56.832C147.606 57.1493 148.073 57.6067 148.409 58.204C148.754 58.792 148.927 59.478 148.927 60.262ZM145.021 58.008C144.526 58.008 144.111 58.148 143.775 58.428C143.439 58.708 143.234 59.0907 143.159 59.576H146.869C146.794 59.1 146.589 58.722 146.253 58.442C145.917 58.1527 145.506 58.008 145.021 58.008ZM158.798 56.356C159.498 56.356 160.133 56.5193 160.702 56.846C161.281 57.1633 161.733 57.616 162.06 58.204C162.387 58.7827 162.55 59.4593 162.55 60.234C162.55 61.0087 162.387 61.69 162.06 62.278C161.733 62.8567 161.281 63.3093 160.702 63.636C160.133 63.9533 159.498 64.112 158.798 64.112C157.762 64.112 156.973 63.7853 156.432 63.132V64H154.346V53.612H156.53V57.266C157.081 56.6593 157.837 56.356 158.798 56.356ZM158.42 62.32C158.98 62.32 159.437 62.1333 159.792 61.76C160.156 61.3773 160.338 60.8687 160.338 60.234C160.338 59.5993 160.156 59.0953 159.792 58.722C159.437 58.3393 158.98 58.148 158.42 58.148C157.86 58.148 157.398 58.3393 157.034 58.722C156.679 59.0953 156.502 59.5993 156.502 60.234C156.502 60.8687 156.679 61.3773 157.034 61.76C157.398 62.1333 157.86 62.32 158.42 62.32ZM171.39 60.262C171.39 60.29 171.376 60.486 171.348 60.85H165.65C165.753 61.3167 165.995 61.6853 166.378 61.956C166.761 62.2267 167.237 62.362 167.806 62.362C168.198 62.362 168.543 62.306 168.842 62.194C169.15 62.0727 169.435 61.886 169.696 61.634L170.858 62.894C170.149 63.706 169.113 64.112 167.75 64.112C166.901 64.112 166.149 63.9487 165.496 63.622C164.843 63.286 164.339 62.824 163.984 62.236C163.629 61.648 163.452 60.9807 163.452 60.234C163.452 59.4967 163.625 58.834 163.97 58.246C164.325 57.6487 164.805 57.1867 165.412 56.86C166.028 56.524 166.714 56.356 167.47 56.356C168.207 56.356 168.875 56.5147 169.472 56.832C170.069 57.1493 170.536 57.6067 170.872 58.204C171.217 58.792 171.39 59.478 171.39 60.262ZM167.484 58.008C166.989 58.008 166.574 58.148 166.238 58.428C165.902 58.708 165.697 59.0907 165.622 59.576H169.332C169.257 59.1 169.052 58.722 168.716 58.442C168.38 58.1527 167.969 58.008 167.484 58.008ZM175.378 64.112C174.753 64.112 174.141 64.0373 173.544 63.888C172.947 63.7293 172.471 63.5333 172.116 63.3L172.844 61.732C173.18 61.9467 173.586 62.124 174.062 62.264C174.538 62.3947 175.005 62.46 175.462 62.46C176.386 62.46 176.848 62.2313 176.848 61.774C176.848 61.5593 176.722 61.4053 176.47 61.312C176.218 61.2187 175.831 61.1393 175.308 61.074C174.692 60.9807 174.183 60.8733 173.782 60.752C173.381 60.6307 173.031 60.416 172.732 60.108C172.443 59.8 172.298 59.3613 172.298 58.792C172.298 58.316 172.433 57.896 172.704 57.532C172.984 57.1587 173.385 56.8693 173.908 56.664C174.44 56.4587 175.065 56.356 175.784 56.356C176.316 56.356 176.843 56.4167 177.366 56.538C177.898 56.65 178.337 56.8087 178.682 57.014L177.954 58.568C177.291 58.1947 176.568 58.008 175.784 58.008C175.317 58.008 174.967 58.0733 174.734 58.204C174.501 58.3347 174.384 58.5027 174.384 58.708C174.384 58.9413 174.51 59.1047 174.762 59.198C175.014 59.2913 175.415 59.38 175.966 59.464C176.582 59.5667 177.086 59.6787 177.478 59.8C177.87 59.912 178.211 60.122 178.5 60.43C178.789 60.738 178.934 61.1673 178.934 61.718C178.934 62.1847 178.794 62.6 178.514 62.964C178.234 63.328 177.823 63.6127 177.282 63.818C176.75 64.014 176.115 64.112 175.378 64.112ZM185.139 63.636C184.925 63.7947 184.659 63.916 184.341 64C184.033 64.0747 183.707 64.112 183.361 64.112C182.465 64.112 181.77 63.8833 181.275 63.426C180.79 62.9687 180.547 62.2967 180.547 61.41V58.316H179.385V56.636H180.547V54.802H182.731V56.636H184.607V58.316H182.731V61.382C182.731 61.6993 182.811 61.9467 182.969 62.124C183.137 62.292 183.371 62.376 183.669 62.376C184.015 62.376 184.309 62.2827 184.551 62.096L185.139 63.636ZM40.484 74.468L37.082 82.462C36.7367 83.33 36.3073 83.9413 35.794 84.296C35.29 84.6507 34.6787 84.828 33.96 84.828C33.568 84.828 33.1807 84.7673 32.798 84.646C32.4153 84.5247 32.1027 84.3567 31.86 84.142L32.658 82.588C32.826 82.7373 33.0173 82.854 33.232 82.938C33.456 83.022 33.6753 83.064 33.89 83.064C34.1887 83.064 34.4313 82.9893 34.618 82.84C34.8047 82.7 34.9727 82.462 35.122 82.126L35.15 82.056L31.888 74.468H34.142L36.256 79.578L38.384 74.468H40.484ZM44.7541 82.112C43.9608 82.112 43.2468 81.9487 42.6121 81.622C41.9868 81.286 41.4968 80.824 41.1421 80.236C40.7874 79.648 40.6101 78.9807 40.6101 78.234C40.6101 77.4873 40.7874 76.82 41.1421 76.232C41.4968 75.644 41.9868 75.1867 42.6121 74.86C43.2468 74.524 43.9608 74.356 44.7541 74.356C45.5474 74.356 46.2568 74.524 46.8821 74.86C47.5074 75.1867 47.9974 75.644 48.3521 76.232C48.7068 76.82 48.8841 77.4873 48.8841 78.234C48.8841 78.9807 48.7068 79.648 48.3521 80.236C47.9974 80.824 47.5074 81.286 46.8821 81.622C46.2568 81.9487 45.5474 82.112 44.7541 82.112ZM44.7541 80.32C45.3141 80.32 45.7714 80.1333 46.1261 79.76C46.4901 79.3773 46.6721 78.8687 46.6721 78.234C46.6721 77.5993 46.4901 77.0953 46.1261 76.722C45.7714 76.3393 45.3141 76.148 44.7541 76.148C44.1941 76.148 43.7321 76.3393 43.3681 76.722C43.0041 77.0953 42.8221 77.5993 42.8221 78.234C42.8221 78.8687 43.0041 79.3773 43.3681 79.76C43.7321 80.1333 44.1941 80.32 44.7541 80.32ZM57.9319 74.468V82H55.8599V81.104C55.5706 81.4307 55.2253 81.6827 54.8239 81.86C54.4226 82.028 53.9886 82.112 53.5219 82.112C52.5326 82.112 51.7486 81.8273 51.1699 81.258C50.5913 80.6887 50.3019 79.844 50.3019 78.724V74.468H52.4859V78.402C52.4859 79.6153 52.9946 80.222 54.0119 80.222C54.5346 80.222 54.9546 80.054 55.2719 79.718C55.5893 79.3727 55.7479 78.864 55.7479 78.192V74.468H57.9319ZM67.5601 82.112C66.7574 82.112 66.0341 81.9487 65.3901 81.622C64.7554 81.286 64.2561 80.824 63.8921 80.236C63.5374 79.648 63.3601 78.9807 63.3601 78.234C63.3601 77.4873 63.5374 76.82 63.8921 76.232C64.2561 75.644 64.7554 75.1867 65.3901 74.86C66.0341 74.524 66.7574 74.356 67.5601 74.356C68.3534 74.356 69.0441 74.524 69.6321 74.86C70.2294 75.1867 70.6634 75.658 70.9341 76.274L69.2401 77.184C68.8481 76.4933 68.2834 76.148 67.5461 76.148C66.9768 76.148 66.5054 76.3347 66.1321 76.708C65.7588 77.0813 65.5721 77.59 65.5721 78.234C65.5721 78.878 65.7588 79.3867 66.1321 79.76C66.5054 80.1333 66.9768 80.32 67.5461 80.32C68.2928 80.32 68.8574 79.9747 69.2401 79.284L70.9341 80.208C70.6634 80.8053 70.2294 81.272 69.6321 81.608C69.0441 81.944 68.3534 82.112 67.5601 82.112ZM75.2296 74.356C76.3963 74.356 77.2923 74.636 77.9176 75.196C78.5429 75.7467 78.8556 76.582 78.8556 77.702V82H76.8116V81.062C76.4009 81.762 75.6356 82.112 74.5156 82.112C73.9369 82.112 73.4329 82.014 73.0036 81.818C72.5836 81.622 72.2616 81.3513 72.0376 81.006C71.8136 80.6607 71.7016 80.2687 71.7016 79.83C71.7016 79.13 71.9629 78.5793 72.4856 78.178C73.0176 77.7767 73.8343 77.576 74.9356 77.576H76.6716C76.6716 77.1 76.5269 76.736 76.2376 76.484C75.9483 76.2227 75.5143 76.092 74.9356 76.092C74.5343 76.092 74.1376 76.1573 73.7456 76.288C73.3629 76.4093 73.0363 76.5773 72.7656 76.792L71.9816 75.266C72.3923 74.9767 72.8823 74.7527 73.4516 74.594C74.0303 74.4353 74.6229 74.356 75.2296 74.356ZM75.0616 80.642C75.4349 80.642 75.7663 80.558 76.0556 80.39C76.3449 80.2127 76.5503 79.956 76.6716 79.62V78.85H75.1736C74.2776 78.85 73.8296 79.144 73.8296 79.732C73.8296 80.012 73.9369 80.236 74.1516 80.404C74.3756 80.5627 74.6789 80.642 75.0616 80.642ZM85.4102 74.356C86.3436 74.356 87.0949 74.636 87.6642 75.196C88.2429 75.756 88.5322 76.5867 88.5322 77.688V82H86.3482V78.024C86.3482 77.4267 86.2176 76.9833 85.9562 76.694C85.6949 76.3953 85.3169 76.246 84.8222 76.246C84.2716 76.246 83.8329 76.4187 83.5062 76.764C83.1796 77.1 83.0162 77.604 83.0162 78.276V82H80.8322V74.468H82.9182V75.35C83.2076 75.0327 83.5669 74.79 83.9962 74.622C84.4256 74.4447 84.8969 74.356 85.4102 74.356ZM98.9288 74.356C99.6288 74.356 100.263 74.5193 100.833 74.846C101.411 75.1633 101.864 75.616 102.191 76.204C102.517 76.7827 102.681 77.4593 102.681 78.234C102.681 79.0087 102.517 79.69 102.191 80.278C101.864 80.8567 101.411 81.3093 100.833 81.636C100.263 81.9533 99.6288 82.112 98.9288 82.112C97.8928 82.112 97.1041 81.7853 96.5628 81.132V82H94.4768V71.612H96.6608V75.266C97.2114 74.6593 97.9674 74.356 98.9288 74.356ZM98.5508 80.32C99.1108 80.32 99.5681 80.1333 99.9228 79.76C100.287 79.3773 100.469 78.8687 100.469 78.234C100.469 77.5993 100.287 77.0953 99.9228 76.722C99.5681 76.3393 99.1108 76.148 98.5508 76.148C97.9908 76.148 97.5288 76.3393 97.1647 76.722C96.8101 77.0953 96.6328 77.5993 96.6328 78.234C96.6328 78.8687 96.8101 79.3773 97.1647 79.76C97.5288 80.1333 97.9908 80.32 98.5508 80.32ZM111.521 78.262C111.521 78.29 111.507 78.486 111.479 78.85H105.781C105.883 79.3167 106.126 79.6853 106.509 79.956C106.891 80.2267 107.367 80.362 107.937 80.362C108.329 80.362 108.674 80.306 108.973 80.194C109.281 80.0727 109.565 79.886 109.827 79.634L110.989 80.894C110.279 81.706 109.243 82.112 107.881 82.112C107.031 82.112 106.28 81.9487 105.627 81.622C104.973 81.286 104.469 80.824 104.115 80.236C103.76 79.648 103.583 78.9807 103.583 78.234C103.583 77.4967 103.755 76.834 104.101 76.246C104.455 75.6487 104.936 75.1867 105.543 74.86C106.159 74.524 106.845 74.356 107.601 74.356C108.338 74.356 109.005 74.5147 109.603 74.832C110.2 75.1493 110.667 75.6067 111.003 76.204C111.348 76.792 111.521 77.478 111.521 78.262ZM107.615 76.008C107.12 76.008 106.705 76.148 106.369 76.428C106.033 76.708 105.827 77.0907 105.753 77.576H109.463C109.388 77.1 109.183 76.722 108.847 76.442C108.511 76.1527 108.1 76.008 107.615 76.008ZM112.695 72.2H115.299L114.865 78.598H113.129L112.695 72.2ZM113.997 82.112C113.614 82.112 113.292 81.9907 113.031 81.748C112.779 81.496 112.653 81.1927 112.653 80.838C112.653 80.4833 112.779 80.1893 113.031 79.956C113.283 79.7133 113.605 79.592 113.997 79.592C114.389 79.592 114.711 79.7133 114.963 79.956C115.215 80.1893 115.341 80.4833 115.341 80.838C115.341 81.1927 115.21 81.496 114.949 81.748C114.697 81.9907 114.379 82.112 113.997 82.112Z" fill="white"/>
</g>
<defs>
<clipPath id="clip0">
<path d="M0 0H375V118H0V0Z" fill="white"/>
</clipPath>
</defs>
</svg>
