<svg width="38" height="38" viewBox="0 0 38 38" fill="none" xmlns="http://www.w3.org/2000/svg">
<g filter="url(#filter0_d)">
<path d="M23.9736 4.00304L31 11.0337L30.997 20.9736L23.9663 28L14.0264 27.997L7 20.9663L7.00304 11.0264L14.0337 4L23.9736 4.00304Z" fill="#D93B3B"/>
<path d="M23.9736 4.00304L31 11.0337L30.997 20.9736L23.9663 28L14.0264 27.997L7 20.9663L7.00304 11.0264L14.0337 4L23.9736 4.00304Z" fill="url(#paint0_linear)" fill-opacity="0.26"/>
<path d="M23.9736 4.00304L31 11.0337L30.997 20.9736L23.9663 28L14.0264 27.997L7 20.9663L7.00304 11.0264L14.0337 4L23.9736 4.00304Z" fill="url(#paint1_radial)" fill-opacity="0.25"/>
<path d="M14.3497 4.76334L23.6572 4.76619L30.2367 11.3497L30.2338 20.6572L23.6503 27.2367L14.3428 27.2338L7.76334 20.6503L7.76619 11.3428L14.3497 4.76334Z" stroke="white" stroke-opacity="0.2" stroke-width="1.52649"/>
</g>
<defs>
<filter id="filter0_d" x="0.89402" y="0.94701" width="36.212" height="36.212" filterUnits="userSpaceOnUse" color-interpolation-filters="sRGB">
<feFlood flood-opacity="0" result="BackgroundImageFix"/>
<feColorMatrix in="SourceAlpha" type="matrix" values="0 0 0 0 0 0 0 0 0 0 0 0 0 0 0 0 0 0 127 0"/>
<feOffset dy="3.05299"/>
<feGaussianBlur stdDeviation="3.05299"/>
<feColorMatrix type="matrix" values="0 0 0 0 0 0 0 0 0 0 0 0 0 0 0 0 0 0 0.1 0"/>
<feBlend mode="normal" in2="BackgroundImageFix" result="effect1_dropShadow"/>
<feBlend mode="normal" in="SourceGraphic" in2="effect1_dropShadow" result="shape"/>
</filter>
<linearGradient id="paint0_linear" x1="18.8543" y1="4.1656" x2="18.8543" y2="28.841" gradientUnits="userSpaceOnUse">
<stop stop-opacity="0"/>
<stop offset="1"/>
</linearGradient>
<radialGradient id="paint1_radial" cx="0" cy="0" r="1" gradientUnits="userSpaceOnUse" gradientTransform="translate(14.9582 9.36042) rotate(55.7843) scale(19.6315)">
<stop stop-color="white"/>
<stop offset="1" stop-color="white" stop-opacity="0"/>
</radialGradient>
</defs>
</svg>
