<svg width="65" height="57" viewBox="0 0 65 57" fill="none" xmlns="http://www.w3.org/2000/svg">
<path opacity="0.05" d="M18.4 30.4C21.0667 31.3333 23.1333 32.8667 24.6 35C26.0667 37.1333 26.8 39.7333 26.8 42.8C26.8 46.8 25.5333 50.0667 23 52.6C20.4667 55.1333 17.3333 56.4 13.6 56.4C9.73333 56.4 6.53333 55.1333 4 52.6C1.46667 49.9333 0.200001 46.6667 0.200001 42.8C0.200001 40.9333 0.400001 39.0667 0.8 37.2C1.33333 35.2 2.33333 32.3333 3.8 28.6L13.2 0.599991H25.8L18.4 30.4ZM56.2 30.4C58.8667 31.3333 60.9333 32.8667 62.4 35C63.8667 37.1333 64.6 39.7333 64.6 42.8C64.6 46.8 63.3333 50.0667 60.8 52.6C58.2667 55.1333 55.1333 56.4 51.4 56.4C47.5333 56.4 44.3333 55.1333 41.8 52.6C39.2667 49.9333 38 46.6667 38 42.8C38 40.9333 38.2 39.0667 38.6 37.2C39.1333 35.2 40.1333 32.3333 41.6 28.6L51 0.599991H63.6L56.2 30.4Z" fill="black"/>
</svg>
