<svg width="375" height="118" viewBox="0 0 375 118" fill="none" xmlns="http://www.w3.org/2000/svg">
<g clip-path="url(#clip0)">
<path d="M0 0H375V118H0V0Z" fill="#47637B"/>
<path d="M282.366 95.138L339.495 133.737C344.387 137.042 344.126 144.359 339.011 147.33L298.99 170.566C293.874 173.536 287.442 170.105 287.042 164.192L282.366 95.138Z" fill="#D4E2EE"/>
<path d="M281.634 93.8619L276.958 24.8083C276.558 18.8953 270.126 15.4635 265.011 18.4336L224.99 41.6704C219.874 44.6404 219.613 51.9581 224.505 55.2633L281.634 93.8619Z" fill="#F0F6FA"/>
<path d="M281.267 94.4999L219.536 124.919C214.22 127.539 208 123.67 208 117.743V71.2567C208 65.3299 214.22 61.4609 219.536 64.0806L281.267 94.4999Z" fill="#B9CFE3"/>
<path d="M282.733 94.4999L344.464 124.919C349.78 127.539 356 123.67 356 117.743V71.2567C356 65.3299 349.78 61.4609 344.464 64.0806L282.733 94.4999Z" fill="#AAC6DD"/>
<path d="M282.367 93.8619L287.042 24.8082C287.442 18.8953 293.874 15.4635 298.99 18.4336L339.011 41.6703C344.126 44.6404 344.387 51.9581 339.495 55.2633L282.367 93.8619Z" fill="#C7D9E8"/>
<path d="M281.634 95.1383L224.505 133.737C219.614 137.042 219.874 144.36 224.99 147.33L265.011 170.567C270.126 173.537 276.558 170.105 276.959 164.192L281.634 95.1383Z" fill="#8FB4D1"/>
<path d="M39.616 43.9H35.066L34.198 46H31.874L36.242 36.2H38.482L42.864 46H40.484L39.616 43.9ZM38.902 42.178L37.348 38.426L35.794 42.178H38.902ZM48.5164 45.636C48.3017 45.7947 48.0357 45.916 47.7184 46C47.4104 46.0747 47.0837 46.112 46.7384 46.112C45.8424 46.112 45.1471 45.8833 44.6524 45.426C44.1671 44.9687 43.9244 44.2967 43.9244 43.41V40.316H42.7624V38.636H43.9244V36.802H46.1084V38.636H47.9844V40.316H46.1084V43.382C46.1084 43.6993 46.1877 43.9467 46.3464 44.124C46.5144 44.292 46.7477 44.376 47.0464 44.376C47.3917 44.376 47.6857 44.2827 47.9284 44.096L48.5164 45.636ZM58.5512 46.168C57.5526 46.168 56.6472 45.9533 55.8352 45.524C55.0326 45.0853 54.3979 44.4833 53.9312 43.718C53.4739 42.9433 53.2452 42.0707 53.2452 41.1C53.2452 40.1293 53.4739 39.2613 53.9312 38.496C54.3979 37.7213 55.0326 37.1193 55.8352 36.69C56.6472 36.2513 57.5572 36.032 58.5652 36.032C59.4146 36.032 60.1799 36.1813 60.8612 36.48C61.5519 36.7787 62.1306 37.208 62.5972 37.768L61.1412 39.112C60.4786 38.3467 59.6572 37.964 58.6772 37.964C58.0706 37.964 57.5292 38.0993 57.0532 38.37C56.5772 38.6313 56.2039 39 55.9332 39.476C55.6719 39.952 55.5412 40.4933 55.5412 41.1C55.5412 41.7067 55.6719 42.248 55.9332 42.724C56.2039 43.2 56.5772 43.5733 57.0532 43.844C57.5292 44.1053 58.0706 44.236 58.6772 44.236C59.6572 44.236 60.4786 43.8487 61.1412 43.074L62.5972 44.418C62.1306 44.9873 61.5519 45.4213 60.8612 45.72C60.1706 46.0187 59.4006 46.168 58.5512 46.168ZM67.299 46.112C66.5057 46.112 65.7917 45.9487 65.157 45.622C64.5317 45.286 64.0417 44.824 63.687 44.236C63.3324 43.648 63.155 42.9807 63.155 42.234C63.155 41.4873 63.3324 40.82 63.687 40.232C64.0417 39.644 64.5317 39.1867 65.157 38.86C65.7917 38.524 66.5057 38.356 67.299 38.356C68.0924 38.356 68.8017 38.524 69.427 38.86C70.0524 39.1867 70.5424 39.644 70.897 40.232C71.2517 40.82 71.429 41.4873 71.429 42.234C71.429 42.9807 71.2517 43.648 70.897 44.236C70.5424 44.824 70.0524 45.286 69.427 45.622C68.8017 45.9487 68.0924 46.112 67.299 46.112ZM67.299 44.32C67.859 44.32 68.3164 44.1333 68.671 43.76C69.035 43.3773 69.217 42.8687 69.217 42.234C69.217 41.5993 69.035 41.0953 68.671 40.722C68.3164 40.3393 67.859 40.148 67.299 40.148C66.739 40.148 66.277 40.3393 65.913 40.722C65.549 41.0953 65.367 41.5993 65.367 42.234C65.367 42.8687 65.549 43.3773 65.913 43.76C66.277 44.1333 66.739 44.32 67.299 44.32ZM77.4669 38.356C78.4002 38.356 79.1515 38.636 79.7209 39.196C80.2995 39.756 80.5889 40.5867 80.5889 41.688V46H78.4049V42.024C78.4049 41.4267 78.2742 40.9833 78.0129 40.694C77.7515 40.3953 77.3735 40.246 76.8789 40.246C76.3282 40.246 75.8895 40.4187 75.5629 40.764C75.2362 41.1 75.0729 41.604 75.0729 42.276V46H72.8889V38.468H74.9749V39.35C75.2642 39.0327 75.6235 38.79 76.0529 38.622C76.4822 38.4447 76.9535 38.356 77.4669 38.356ZM87.4265 45.636C87.2119 45.7947 86.9459 45.916 86.6285 46C86.3205 46.0747 85.9939 46.112 85.6485 46.112C84.7525 46.112 84.0572 45.8833 83.5625 45.426C83.0772 44.9687 82.8345 44.2967 82.8345 43.41V40.316H81.6725V38.636H82.8345V36.802H85.0185V38.636H86.8945V40.316H85.0185V43.382C85.0185 43.6993 85.0979 43.9467 85.2565 44.124C85.4245 44.292 85.6579 44.376 85.9565 44.376C86.3019 44.376 86.5959 44.2827 86.8385 44.096L87.4265 45.636ZM92.0041 46.112C91.2108 46.112 90.4968 45.9487 89.8621 45.622C89.2368 45.286 88.7468 44.824 88.3921 44.236C88.0374 43.648 87.8601 42.9807 87.8601 42.234C87.8601 41.4873 88.0374 40.82 88.3921 40.232C88.7468 39.644 89.2368 39.1867 89.8621 38.86C90.4968 38.524 91.2108 38.356 92.0041 38.356C92.7974 38.356 93.5068 38.524 94.1321 38.86C94.7574 39.1867 95.2474 39.644 95.6021 40.232C95.9568 40.82 96.1341 41.4873 96.1341 42.234C96.1341 42.9807 95.9568 43.648 95.6021 44.236C95.2474 44.824 94.7574 45.286 94.1321 45.622C93.5068 45.9487 92.7974 46.112 92.0041 46.112ZM92.0041 44.32C92.5641 44.32 93.0214 44.1333 93.3761 43.76C93.7401 43.3773 93.9221 42.8687 93.9221 42.234C93.9221 41.5993 93.7401 41.0953 93.3761 40.722C93.0214 40.3393 92.5641 40.148 92.0041 40.148C91.4441 40.148 90.9821 40.3393 90.6181 40.722C90.2541 41.0953 90.0721 41.5993 90.0721 42.234C90.0721 42.8687 90.2541 43.3773 90.6181 43.76C90.9821 44.1333 91.4441 44.32 92.0041 44.32ZM100.128 46.112C99.5026 46.112 98.8913 46.0373 98.2939 45.888C97.6966 45.7293 97.2206 45.5333 96.8659 45.3L97.5939 43.732C97.9299 43.9467 98.3359 44.124 98.8119 44.264C99.2879 44.3947 99.7546 44.46 100.212 44.46C101.136 44.46 101.598 44.2313 101.598 43.774C101.598 43.5593 101.472 43.4053 101.22 43.312C100.968 43.2187 100.581 43.1393 100.058 43.074C99.4419 42.9807 98.9333 42.8733 98.5319 42.752C98.1306 42.6307 97.7806 42.416 97.4819 42.108C97.1926 41.8 97.0479 41.3613 97.0479 40.792C97.0479 40.316 97.1833 39.896 97.4539 39.532C97.7339 39.1587 98.1353 38.8693 98.6579 38.664C99.1899 38.4587 99.8153 38.356 100.534 38.356C101.066 38.356 101.593 38.4167 102.116 38.538C102.648 38.65 103.087 38.8087 103.432 39.014L102.704 40.568C102.041 40.1947 101.318 40.008 100.534 40.008C100.067 40.008 99.7173 40.0733 99.4839 40.204C99.2506 40.3347 99.1339 40.5027 99.1339 40.708C99.1339 40.9413 99.2599 41.1047 99.5119 41.198C99.7639 41.2913 100.165 41.38 100.716 41.464C101.332 41.5667 101.836 41.6787 102.228 41.8C102.62 41.912 102.961 42.122 103.25 42.43C103.539 42.738 103.684 43.1673 103.684 43.718C103.684 44.1847 103.544 44.6 103.264 44.964C102.984 45.328 102.573 45.6127 102.032 45.818C101.5 46.014 100.865 46.112 100.128 46.112ZM108.615 46.112C107.822 46.112 107.108 45.9487 106.473 45.622C105.848 45.286 105.358 44.824 105.003 44.236C104.649 43.648 104.471 42.9807 104.471 42.234C104.471 41.4873 104.649 40.82 105.003 40.232C105.358 39.644 105.848 39.1867 106.473 38.86C107.108 38.524 107.822 38.356 108.615 38.356C109.409 38.356 110.118 38.524 110.743 38.86C111.369 39.1867 111.859 39.644 112.213 40.232C112.568 40.82 112.745 41.4873 112.745 42.234C112.745 42.9807 112.568 43.648 112.213 44.236C111.859 44.824 111.369 45.286 110.743 45.622C110.118 45.9487 109.409 46.112 108.615 46.112ZM108.615 44.32C109.175 44.32 109.633 44.1333 109.987 43.76C110.351 43.3773 110.533 42.8687 110.533 42.234C110.533 41.5993 110.351 41.0953 109.987 40.722C109.633 40.3393 109.175 40.148 108.615 40.148C108.055 40.148 107.593 40.3393 107.229 40.722C106.865 41.0953 106.683 41.5993 106.683 42.234C106.683 42.8687 106.865 43.3773 107.229 43.76C107.593 44.1333 108.055 44.32 108.615 44.32ZM114.95 43.396C115.342 43.396 115.664 43.522 115.916 43.774C116.168 44.0167 116.294 44.3387 116.294 44.74C116.294 44.9267 116.27 45.1133 116.224 45.3C116.177 45.4867 116.074 45.7667 115.916 46.14L115.118 48.156H113.732L114.348 45.93C114.114 45.8367 113.928 45.6873 113.788 45.482C113.657 45.2673 113.592 45.02 113.592 44.74C113.592 44.3387 113.718 44.0167 113.97 43.774C114.231 43.522 114.558 43.396 114.95 43.396ZM133.834 38.468L131.104 46H129.004L127.31 41.324L125.56 46H123.46L120.744 38.468H122.802L124.58 43.564L126.428 38.468H128.276L130.068 43.564L131.902 38.468H133.834ZM142.023 42.262C142.023 42.29 142.009 42.486 141.981 42.85H136.283C136.385 43.3167 136.628 43.6853 137.011 43.956C137.393 44.2267 137.869 44.362 138.439 44.362C138.831 44.362 139.176 44.306 139.475 44.194C139.783 44.0727 140.067 43.886 140.329 43.634L141.491 44.894C140.781 45.706 139.745 46.112 138.383 46.112C137.533 46.112 136.782 45.9487 136.129 45.622C135.475 45.286 134.971 44.824 134.617 44.236C134.262 43.648 134.085 42.9807 134.085 42.234C134.085 41.4967 134.257 40.834 134.603 40.246C134.957 39.6487 135.438 39.1867 136.045 38.86C136.661 38.524 137.347 38.356 138.103 38.356C138.84 38.356 139.507 38.5147 140.105 38.832C140.702 39.1493 141.169 39.6067 141.505 40.204C141.85 40.792 142.023 41.478 142.023 42.262ZM138.117 40.008C137.622 40.008 137.207 40.148 136.871 40.428C136.535 40.708 136.329 41.0907 136.255 41.576H139.965C139.89 41.1 139.685 40.722 139.349 40.442C139.013 40.1527 138.602 40.008 138.117 40.008ZM150.676 43.046L149.626 44.082V46H147.442V35.612H149.626V41.492L152.818 38.468H155.422L152.286 41.66L155.702 46H153.056L150.676 43.046ZM161.207 38.356C162.14 38.356 162.892 38.636 163.461 39.196C164.04 39.756 164.329 40.5867 164.329 41.688V46H162.145V42.024C162.145 41.4267 162.014 40.9833 161.753 40.694C161.492 40.3953 161.114 40.246 160.619 40.246C160.068 40.246 159.63 40.4187 159.303 40.764C158.976 41.1 158.813 41.604 158.813 42.276V46H156.629V38.468H158.715V39.35C159.004 39.0327 159.364 38.79 159.793 38.622C160.222 38.4447 160.694 38.356 161.207 38.356ZM169.975 46.112C169.181 46.112 168.467 45.9487 167.833 45.622C167.207 45.286 166.717 44.824 166.363 44.236C166.008 43.648 165.831 42.9807 165.831 42.234C165.831 41.4873 166.008 40.82 166.363 40.232C166.717 39.644 167.207 39.1867 167.833 38.86C168.467 38.524 169.181 38.356 169.975 38.356C170.768 38.356 171.477 38.524 172.103 38.86C172.728 39.1867 173.218 39.644 173.573 40.232C173.927 40.82 174.105 41.4873 174.105 42.234C174.105 42.9807 173.927 43.648 173.573 44.236C173.218 44.824 172.728 45.286 172.103 45.622C171.477 45.9487 170.768 46.112 169.975 46.112ZM169.975 44.32C170.535 44.32 170.992 44.1333 171.347 43.76C171.711 43.3773 171.893 42.8687 171.893 42.234C171.893 41.5993 171.711 41.0953 171.347 40.722C170.992 40.3393 170.535 40.148 169.975 40.148C169.415 40.148 168.953 40.3393 168.589 40.722C168.225 41.0953 168.043 41.5993 168.043 42.234C168.043 42.8687 168.225 43.3773 168.589 43.76C168.953 44.1333 169.415 44.32 169.975 44.32ZM187.456 38.468L184.726 46H182.626L180.932 41.324L179.182 46H177.082L174.366 38.468H176.424L178.202 43.564L180.05 38.468H181.898L183.69 43.564L185.524 38.468H187.456ZM40.484 56.468L37.082 64.462C36.7367 65.33 36.3073 65.9413 35.794 66.296C35.29 66.6507 34.6787 66.828 33.96 66.828C33.568 66.828 33.1807 66.7673 32.798 66.646C32.4153 66.5247 32.1027 66.3567 31.86 66.142L32.658 64.588C32.826 64.7373 33.0173 64.854 33.232 64.938C33.456 65.022 33.6753 65.064 33.89 65.064C34.1887 65.064 34.4313 64.9893 34.618 64.84C34.8047 64.7 34.9727 64.462 35.122 64.126L35.15 64.056L31.888 56.468H34.142L36.256 61.578L38.384 56.468H40.484ZM44.7541 64.112C43.9608 64.112 43.2468 63.9487 42.6121 63.622C41.9868 63.286 41.4968 62.824 41.1421 62.236C40.7874 61.648 40.6101 60.9807 40.6101 60.234C40.6101 59.4873 40.7874 58.82 41.1421 58.232C41.4968 57.644 41.9868 57.1867 42.6121 56.86C43.2468 56.524 43.9608 56.356 44.7541 56.356C45.5474 56.356 46.2568 56.524 46.8821 56.86C47.5074 57.1867 47.9974 57.644 48.3521 58.232C48.7068 58.82 48.8841 59.4873 48.8841 60.234C48.8841 60.9807 48.7068 61.648 48.3521 62.236C47.9974 62.824 47.5074 63.286 46.8821 63.622C46.2568 63.9487 45.5474 64.112 44.7541 64.112ZM44.7541 62.32C45.3141 62.32 45.7714 62.1333 46.1261 61.76C46.4901 61.3773 46.6721 60.8687 46.6721 60.234C46.6721 59.5993 46.4901 59.0953 46.1261 58.722C45.7714 58.3393 45.3141 58.148 44.7541 58.148C44.1941 58.148 43.7321 58.3393 43.3681 58.722C43.0041 59.0953 42.8221 59.5993 42.8221 60.234C42.8221 60.8687 43.0041 61.3773 43.3681 61.76C43.7321 62.1333 44.1941 62.32 44.7541 62.32ZM57.9319 56.468V64H55.8599V63.104C55.5706 63.4307 55.2253 63.6827 54.8239 63.86C54.4226 64.028 53.9886 64.112 53.5219 64.112C52.5326 64.112 51.7486 63.8273 51.1699 63.258C50.5913 62.6887 50.3019 61.844 50.3019 60.724V56.468H52.4859V60.402C52.4859 61.6153 52.9946 62.222 54.0119 62.222C54.5346 62.222 54.9546 62.054 55.2719 61.718C55.5893 61.3727 55.7479 60.864 55.7479 60.192V56.468H57.9319ZM60.7953 53.5C61.1873 53.5 61.5093 53.626 61.7613 53.878C62.0133 54.1207 62.1393 54.4427 62.1393 54.844C62.1393 55.0307 62.1159 55.2173 62.0693 55.404C62.0226 55.5907 61.9246 55.8707 61.7753 56.244L60.9633 58.26H59.5773L60.1793 56.048C59.9459 55.9453 59.7639 55.7913 59.6333 55.586C59.5026 55.3807 59.4373 55.1333 59.4373 54.844C59.4373 54.4427 59.5633 54.1207 59.8153 53.878C60.0766 53.626 60.4033 53.5 60.7953 53.5ZM65.7053 57.462C65.9667 57.098 66.3167 56.8227 66.7553 56.636C67.2033 56.4493 67.7167 56.356 68.2953 56.356V58.372C68.0527 58.3533 67.8893 58.344 67.8053 58.344C67.18 58.344 66.69 58.5213 66.3353 58.876C65.9807 59.2213 65.8033 59.744 65.8033 60.444V64H63.6193V56.468H65.7053V57.462ZM76.9036 60.262C76.9036 60.29 76.8896 60.486 76.8616 60.85H71.1636C71.2662 61.3167 71.5089 61.6853 71.8916 61.956C72.2742 62.2267 72.7502 62.362 73.3196 62.362C73.7116 62.362 74.0569 62.306 74.3556 62.194C74.6636 62.0727 74.9482 61.886 75.2096 61.634L76.3716 62.894C75.6622 63.706 74.6262 64.112 73.2636 64.112C72.4142 64.112 71.6629 63.9487 71.0096 63.622C70.3562 63.286 69.8522 62.824 69.4976 62.236C69.1429 61.648 68.9656 60.9807 68.9656 60.234C68.9656 59.4967 69.1382 58.834 69.4836 58.246C69.8382 57.6487 70.3189 57.1867 70.9256 56.86C71.5416 56.524 72.2276 56.356 72.9836 56.356C73.7209 56.356 74.3882 56.5147 74.9856 56.832C75.5829 57.1493 76.0496 57.6067 76.3856 58.204C76.7309 58.792 76.9036 59.478 76.9036 60.262ZM72.9976 58.008C72.5029 58.008 72.0876 58.148 71.7516 58.428C71.4156 58.708 71.2102 59.0907 71.1356 59.576H74.8456C74.7709 59.1 74.5656 58.722 74.2296 58.442C73.8936 58.1527 73.4829 58.008 72.9976 58.008ZM87.1805 63.636C86.9658 63.7947 86.6998 63.916 86.3825 64C86.0745 64.0747 85.7478 64.112 85.4025 64.112C84.5065 64.112 83.8111 63.8833 83.3165 63.426C82.8311 62.9687 82.5885 62.2967 82.5885 61.41V58.316H81.4265V56.636H82.5885V54.802H84.7725V56.636H86.6485V58.316H84.7725V61.382C84.7725 61.6993 84.8518 61.9467 85.0105 62.124C85.1785 62.292 85.4118 62.376 85.7105 62.376C86.0558 62.376 86.3498 62.2827 86.5925 62.096L87.1805 63.636ZM92.9844 56.356C93.9178 56.356 94.6691 56.636 95.2384 57.196C95.8171 57.756 96.1064 58.5867 96.1064 59.688V64H93.9224V60.024C93.9224 59.4267 93.7918 58.9833 93.5304 58.694C93.2691 58.3953 92.8911 58.246 92.3964 58.246C91.8458 58.246 91.4071 58.4187 91.0804 58.764C90.7538 59.1 90.5904 59.604 90.5904 60.276V64H88.4064V53.612H90.5904V57.252C90.8798 56.9627 91.2298 56.7433 91.6404 56.594C92.0511 56.4353 92.4991 56.356 92.9844 56.356ZM105.546 60.262C105.546 60.29 105.532 60.486 105.504 60.85H99.8062C99.9088 61.3167 100.151 61.6853 100.534 61.956C100.917 62.2267 101.393 62.362 101.962 62.362C102.354 62.362 102.699 62.306 102.998 62.194C103.306 62.0727 103.591 61.886 103.852 61.634L105.014 62.894C104.305 63.706 103.269 64.112 101.906 64.112C101.057 64.112 100.305 63.9487 99.6522 63.622C98.9988 63.286 98.4948 62.824 98.1402 62.236C97.7855 61.648 97.6082 60.9807 97.6082 60.234C97.6082 59.4967 97.7808 58.834 98.1262 58.246C98.4808 57.6487 98.9615 57.1867 99.5682 56.86C100.184 56.524 100.87 56.356 101.626 56.356C102.363 56.356 103.031 56.5147 103.628 56.832C104.225 57.1493 104.692 57.6067 105.028 58.204C105.373 58.792 105.546 59.478 105.546 60.262ZM101.64 58.008C101.145 58.008 100.73 58.148 100.394 58.428C100.058 58.708 99.8528 59.0907 99.7782 59.576H103.488C103.413 59.1 103.208 58.722 102.872 58.442C102.536 58.1527 102.125 58.008 101.64 58.008ZM120.611 56.356C121.554 56.356 122.3 56.636 122.851 57.196C123.411 57.7467 123.691 58.5773 123.691 59.688V64H121.507V60.024C121.507 59.4267 121.381 58.9833 121.129 58.694C120.886 58.3953 120.536 58.246 120.079 58.246C119.566 58.246 119.16 58.414 118.861 58.75C118.562 59.0767 118.413 59.5667 118.413 60.22V64H116.229V60.024C116.229 58.8387 115.753 58.246 114.801 58.246C114.297 58.246 113.896 58.414 113.597 58.75C113.298 59.0767 113.149 59.5667 113.149 60.22V64H110.965V56.468H113.051V57.336C113.331 57.0187 113.672 56.776 114.073 56.608C114.484 56.44 114.932 56.356 115.417 56.356C115.949 56.356 116.43 56.4633 116.859 56.678C117.288 56.8833 117.634 57.1867 117.895 57.588C118.203 57.196 118.59 56.8927 119.057 56.678C119.533 56.4633 120.051 56.356 120.611 56.356ZM129.315 64.112C128.521 64.112 127.807 63.9487 127.173 63.622C126.547 63.286 126.057 62.824 125.703 62.236C125.348 61.648 125.171 60.9807 125.171 60.234C125.171 59.4873 125.348 58.82 125.703 58.232C126.057 57.644 126.547 57.1867 127.173 56.86C127.807 56.524 128.521 56.356 129.315 56.356C130.108 56.356 130.817 56.524 131.443 56.86C132.068 57.1867 132.558 57.644 132.913 58.232C133.267 58.82 133.445 59.4873 133.445 60.234C133.445 60.9807 133.267 61.648 132.913 62.236C132.558 62.824 132.068 63.286 131.443 63.622C130.817 63.9487 130.108 64.112 129.315 64.112ZM129.315 62.32C129.875 62.32 130.332 62.1333 130.687 61.76C131.051 61.3773 131.233 60.8687 131.233 60.234C131.233 59.5993 131.051 59.0953 130.687 58.722C130.332 58.3393 129.875 58.148 129.315 58.148C128.755 58.148 128.293 58.3393 127.929 58.722C127.565 59.0953 127.383 59.5993 127.383 60.234C127.383 60.8687 127.565 61.3773 127.929 61.76C128.293 62.1333 128.755 62.32 129.315 62.32ZM137.438 64.112C136.813 64.112 136.202 64.0373 135.604 63.888C135.007 63.7293 134.531 63.5333 134.176 63.3L134.904 61.732C135.24 61.9467 135.646 62.124 136.122 62.264C136.598 62.3947 137.065 62.46 137.522 62.46C138.446 62.46 138.908 62.2313 138.908 61.774C138.908 61.5593 138.782 61.4053 138.53 61.312C138.278 61.2187 137.891 61.1393 137.368 61.074C136.752 60.9807 136.244 60.8733 135.842 60.752C135.441 60.6307 135.091 60.416 134.792 60.108C134.503 59.8 134.358 59.3613 134.358 58.792C134.358 58.316 134.494 57.896 134.764 57.532C135.044 57.1587 135.446 56.8693 135.968 56.664C136.5 56.4587 137.126 56.356 137.844 56.356C138.376 56.356 138.904 56.4167 139.426 56.538C139.958 56.65 140.397 56.8087 140.742 57.014L140.014 58.568C139.352 58.1947 138.628 58.008 137.844 58.008C137.378 58.008 137.028 58.0733 136.794 58.204C136.561 58.3347 136.444 58.5027 136.444 58.708C136.444 58.9413 136.57 59.1047 136.822 59.198C137.074 59.2913 137.476 59.38 138.026 59.464C138.642 59.5667 139.146 59.6787 139.538 59.8C139.93 59.912 140.271 60.122 140.56 60.43C140.85 60.738 140.994 61.1673 140.994 61.718C140.994 62.1847 140.854 62.6 140.574 62.964C140.294 63.328 139.884 63.6127 139.342 63.818C138.81 64.014 138.176 64.112 137.438 64.112ZM147.2 63.636C146.985 63.7947 146.719 63.916 146.402 64C146.094 64.0747 145.767 64.112 145.422 64.112C144.526 64.112 143.831 63.8833 143.336 63.426C142.851 62.9687 142.608 62.2967 142.608 61.41V58.316H141.446V56.636H142.608V54.802H144.792V56.636H146.668V58.316H144.792V61.382C144.792 61.6993 144.871 61.9467 145.03 62.124C145.198 62.292 145.431 62.376 145.73 62.376C146.075 62.376 146.369 62.2827 146.612 62.096L147.2 63.636ZM40.484 74.468L37.306 82H35.052L31.888 74.468H34.142L36.228 79.592L38.384 74.468H40.484ZM44.1671 74.356C45.3338 74.356 46.2298 74.636 46.8551 75.196C47.4804 75.7467 47.7931 76.582 47.7931 77.702V82H45.7491V81.062C45.3384 81.762 44.5731 82.112 43.4531 82.112C42.8744 82.112 42.3704 82.014 41.9411 81.818C41.5211 81.622 41.1991 81.3513 40.9751 81.006C40.7511 80.6607 40.6391 80.2687 40.6391 79.83C40.6391 79.13 40.9004 78.5793 41.4231 78.178C41.9551 77.7767 42.7718 77.576 43.8731 77.576H45.6091C45.6091 77.1 45.4644 76.736 45.1751 76.484C44.8858 76.2227 44.4518 76.092 43.8731 76.092C43.4718 76.092 43.0751 76.1573 42.6831 76.288C42.3004 76.4093 41.9738 76.5773 41.7031 76.792L40.9191 75.266C41.3298 74.9767 41.8198 74.7527 42.3891 74.594C42.9678 74.4353 43.5604 74.356 44.1671 74.356ZM43.9991 80.642C44.3724 80.642 44.7038 80.558 44.9931 80.39C45.2824 80.2127 45.4878 79.956 45.6091 79.62V78.85H44.1111C43.2151 78.85 42.7671 79.144 42.7671 79.732C42.7671 80.012 42.8744 80.236 43.0891 80.404C43.3131 80.5627 43.6164 80.642 43.9991 80.642ZM49.7697 71.612H51.9537V82H49.7697V71.612ZM61.5687 74.468V82H59.4967V81.104C59.2073 81.4307 58.862 81.6827 58.4607 81.86C58.0593 82.028 57.6253 82.112 57.1587 82.112C56.1693 82.112 55.3853 81.8273 54.8067 81.258C54.228 80.6887 53.9387 79.844 53.9387 78.724V74.468H56.1227V78.402C56.1227 79.6153 56.6313 80.222 57.6487 80.222C58.1713 80.222 58.5913 80.054 58.9087 79.718C59.226 79.3727 59.3847 78.864 59.3847 78.192V74.468H61.5687ZM66.63 74.356C67.7967 74.356 68.6927 74.636 69.318 75.196C69.9433 75.7467 70.256 76.582 70.256 77.702V82H68.212V81.062C67.8013 81.762 67.036 82.112 65.916 82.112C65.3373 82.112 64.8333 82.014 64.404 81.818C63.984 81.622 63.662 81.3513 63.438 81.006C63.214 80.6607 63.102 80.2687 63.102 79.83C63.102 79.13 63.3633 78.5793 63.886 78.178C64.418 77.7767 65.2347 77.576 66.336 77.576H68.072C68.072 77.1 67.9273 76.736 67.638 76.484C67.3487 76.2227 66.9147 76.092 66.336 76.092C65.9347 76.092 65.538 76.1573 65.146 76.288C64.7633 76.4093 64.4367 76.5773 64.166 76.792L63.382 75.266C63.7927 74.9767 64.2827 74.7527 64.852 74.594C65.4307 74.4353 66.0233 74.356 66.63 74.356ZM66.462 80.642C66.8353 80.642 67.1667 80.558 67.456 80.39C67.7453 80.2127 67.9507 79.956 68.072 79.62V78.85H66.574C65.678 78.85 65.23 79.144 65.23 79.732C65.23 80.012 65.3373 80.236 65.552 80.404C65.776 80.5627 66.0793 80.642 66.462 80.642ZM76.6846 74.356C77.3846 74.356 78.0193 74.5193 78.5886 74.846C79.1673 75.1633 79.6199 75.616 79.9466 76.204C80.2733 76.7827 80.4366 77.4593 80.4366 78.234C80.4366 79.0087 80.2733 79.69 79.9466 80.278C79.6199 80.8567 79.1673 81.3093 78.5886 81.636C78.0193 81.9533 77.3846 82.112 76.6846 82.112C75.6486 82.112 74.8599 81.7853 74.3186 81.132V82H72.2326V71.612H74.4166V75.266C74.9673 74.6593 75.7233 74.356 76.6846 74.356ZM76.3066 80.32C76.8666 80.32 77.3239 80.1333 77.6786 79.76C78.0426 79.3773 78.2246 78.8687 78.2246 78.234C78.2246 77.5993 78.0426 77.0953 77.6786 76.722C77.3239 76.3393 76.8666 76.148 76.3066 76.148C75.7466 76.148 75.2846 76.3393 74.9206 76.722C74.5659 77.0953 74.3886 77.5993 74.3886 78.234C74.3886 78.8687 74.5659 79.3773 74.9206 79.76C75.2846 80.1333 75.7466 80.32 76.3066 80.32ZM81.8986 71.612H84.0826V82H81.8986V71.612ZM93.4876 78.262C93.4876 78.29 93.4736 78.486 93.4456 78.85H87.7476C87.8502 79.3167 88.0929 79.6853 88.4756 79.956C88.8582 80.2267 89.3342 80.362 89.9036 80.362C90.2956 80.362 90.6409 80.306 90.9396 80.194C91.2476 80.0727 91.5322 79.886 91.7936 79.634L92.9556 80.894C92.2462 81.706 91.2102 82.112 89.8476 82.112C88.9982 82.112 88.2469 81.9487 87.5936 81.622C86.9402 81.286 86.4362 80.824 86.0816 80.236C85.7269 79.648 85.5496 78.9807 85.5496 78.234C85.5496 77.4967 85.7222 76.834 86.0676 76.246C86.4222 75.6487 86.9029 75.1867 87.5096 74.86C88.1256 74.524 88.8116 74.356 89.5676 74.356C90.3049 74.356 90.9722 74.5147 91.5696 74.832C92.1669 75.1493 92.6336 75.6067 92.9696 76.204C93.3149 76.792 93.4876 77.478 93.4876 78.262ZM89.5816 76.008C89.0869 76.008 88.6716 76.148 88.3356 76.428C87.9996 76.708 87.7942 77.0907 87.7196 77.576H91.4296C91.3549 77.1 91.1496 76.722 90.8136 76.442C90.4776 76.1527 90.0669 76.008 89.5816 76.008ZM101.944 74.356C103.111 74.356 104.007 74.636 104.632 75.196C105.258 75.7467 105.57 76.582 105.57 77.702V82H103.526V81.062C103.116 81.762 102.35 82.112 101.23 82.112C100.652 82.112 100.148 82.014 99.7184 81.818C99.2984 81.622 98.9764 81.3513 98.7524 81.006C98.5284 80.6607 98.4164 80.2687 98.4164 79.83C98.4164 79.13 98.6778 78.5793 99.2004 78.178C99.7324 77.7767 100.549 77.576 101.65 77.576H103.386C103.386 77.1 103.242 76.736 102.952 76.484C102.663 76.2227 102.229 76.092 101.65 76.092C101.249 76.092 100.852 76.1573 100.46 76.288C100.078 76.4093 99.7511 76.5773 99.4804 76.792L98.6964 75.266C99.1071 74.9767 99.5971 74.7527 100.166 74.594C100.745 74.4353 101.338 74.356 101.944 74.356ZM101.776 80.642C102.15 80.642 102.481 80.558 102.77 80.39C103.06 80.2127 103.265 79.956 103.386 79.62V78.85H101.888C100.992 78.85 100.544 79.144 100.544 79.732C100.544 80.012 100.652 80.236 100.866 80.404C101.09 80.5627 101.394 80.642 101.776 80.642ZM110.081 82.112C109.456 82.112 108.844 82.0373 108.247 81.888C107.65 81.7293 107.174 81.5333 106.819 81.3L107.547 79.732C107.883 79.9467 108.289 80.124 108.765 80.264C109.241 80.3947 109.708 80.46 110.165 80.46C111.089 80.46 111.551 80.2313 111.551 79.774C111.551 79.5593 111.425 79.4053 111.173 79.312C110.921 79.2187 110.534 79.1393 110.011 79.074C109.395 78.9807 108.886 78.8733 108.485 78.752C108.084 78.6307 107.734 78.416 107.435 78.108C107.146 77.8 107.001 77.3613 107.001 76.792C107.001 76.316 107.136 75.896 107.407 75.532C107.687 75.1587 108.088 74.8693 108.611 74.664C109.143 74.4587 109.768 74.356 110.487 74.356C111.019 74.356 111.546 74.4167 112.069 74.538C112.601 74.65 113.04 74.8087 113.385 75.014L112.657 76.568C111.994 76.1947 111.271 76.008 110.487 76.008C110.02 76.008 109.67 76.0733 109.437 76.204C109.204 76.3347 109.087 76.5027 109.087 76.708C109.087 76.9413 109.213 77.1047 109.465 77.198C109.717 77.2913 110.118 77.38 110.669 77.464C111.285 77.5667 111.789 77.6787 112.181 77.8C112.573 77.912 112.914 78.122 113.203 78.43C113.492 78.738 113.637 79.1673 113.637 79.718C113.637 80.1847 113.497 80.6 113.217 80.964C112.937 81.328 112.526 81.6127 111.985 81.818C111.453 82.014 110.818 82.112 110.081 82.112ZM117.519 82.112C116.893 82.112 116.282 82.0373 115.685 81.888C115.087 81.7293 114.611 81.5333 114.257 81.3L114.985 79.732C115.321 79.9467 115.727 80.124 116.203 80.264C116.679 80.3947 117.145 80.46 117.603 80.46C118.527 80.46 118.989 80.2313 118.989 79.774C118.989 79.5593 118.863 79.4053 118.611 79.312C118.359 79.2187 117.971 79.1393 117.449 79.074C116.833 78.9807 116.324 78.8733 115.923 78.752C115.521 78.6307 115.171 78.416 114.873 78.108C114.583 77.8 114.439 77.3613 114.439 76.792C114.439 76.316 114.574 75.896 114.845 75.532C115.125 75.1587 115.526 74.8693 116.049 74.664C116.581 74.4587 117.206 74.356 117.925 74.356C118.457 74.356 118.984 74.4167 119.507 74.538C120.039 74.65 120.477 74.8087 120.823 75.014L120.095 76.568C119.432 76.1947 118.709 76.008 117.925 76.008C117.458 76.008 117.108 76.0733 116.875 76.204C116.641 76.3347 116.525 76.5027 116.525 76.708C116.525 76.9413 116.651 77.1047 116.903 77.198C117.155 77.2913 117.556 77.38 118.107 77.464C118.723 77.5667 119.227 77.6787 119.619 77.8C120.011 77.912 120.351 78.122 120.641 78.43C120.93 78.738 121.075 79.1673 121.075 79.718C121.075 80.1847 120.935 80.6 120.655 80.964C120.375 81.328 119.964 81.6127 119.423 81.818C118.891 82.014 118.256 82.112 117.519 82.112ZM129.8 78.262C129.8 78.29 129.786 78.486 129.758 78.85H124.06C124.163 79.3167 124.405 79.6853 124.788 79.956C125.171 80.2267 125.647 80.362 126.216 80.362C126.608 80.362 126.953 80.306 127.252 80.194C127.56 80.0727 127.845 79.886 128.106 79.634L129.268 80.894C128.559 81.706 127.523 82.112 126.16 82.112C125.311 82.112 124.559 81.9487 123.906 81.622C123.253 81.286 122.749 80.824 122.394 80.236C122.039 79.648 121.862 78.9807 121.862 78.234C121.862 77.4967 122.035 76.834 122.38 76.246C122.735 75.6487 123.215 75.1867 123.822 74.86C124.438 74.524 125.124 74.356 125.88 74.356C126.617 74.356 127.285 74.5147 127.882 74.832C128.479 75.1493 128.946 75.6067 129.282 76.204C129.627 76.792 129.8 77.478 129.8 78.262ZM125.894 76.008C125.399 76.008 124.984 76.148 124.648 76.428C124.312 76.708 124.107 77.0907 124.032 77.576H127.742C127.667 77.1 127.462 76.722 127.126 76.442C126.79 76.1527 126.379 76.008 125.894 76.008ZM136.112 81.636C135.897 81.7947 135.631 81.916 135.314 82C135.006 82.0747 134.679 82.112 134.334 82.112C133.438 82.112 132.743 81.8833 132.248 81.426C131.763 80.9687 131.52 80.2967 131.52 79.41V76.316H130.358V74.636H131.52V72.802H133.704V74.636H135.58V76.316H133.704V79.382C133.704 79.6993 133.783 79.9467 133.942 80.124C134.11 80.292 134.343 80.376 134.642 80.376C134.987 80.376 135.281 80.2827 135.524 80.096L136.112 81.636ZM138.301 82.112C137.918 82.112 137.596 81.9813 137.335 81.72C137.073 81.4587 136.943 81.132 136.943 80.74C136.943 80.3387 137.073 80.0167 137.335 79.774C137.596 79.522 137.918 79.396 138.301 79.396C138.683 79.396 139.005 79.522 139.267 79.774C139.528 80.0167 139.659 80.3387 139.659 80.74C139.659 81.132 139.528 81.4587 139.267 81.72C139.005 81.9813 138.683 82.112 138.301 82.112Z" fill="white"/>
</g>
<defs>
<clipPath id="clip0">
<path d="M0 0H375V118H0V0Z" fill="white"/>
</clipPath>
</defs>
</svg>
