<svg width="202" height="224" viewBox="0 0 202 224" fill="none" xmlns="http://www.w3.org/2000/svg">
<path d="M101.5 112.834L183.287 167.783C188.2 171.084 187.951 178.392 182.825 181.351L120.175 217.523C115.049 220.482 108.596 217.043 108.193 211.138L101.5 112.834Z" fill="#D4E2EE"/>
<path d="M100.5 111.103L93.8069 12.7991C93.4048 6.8938 86.9514 3.45489 81.8254 6.41439L19.175 42.5856C14.049 45.5451 13.8005 52.8534 18.7136 56.1543L100.5 111.103Z" fill="#F0F6FA"/>
<path d="M100 111.969L11.5201 155.324C6.2049 157.928 0 154.059 0 148.14V75.7973C0 69.8783 6.2049 66.0089 11.5201 68.6134L100 111.969Z" fill="#B9CFE3"/>
<path d="M102 111.969L190.48 155.324C195.795 157.928 202 154.059 202 148.14V75.7973C202 69.8783 195.795 66.0089 190.48 68.6134L102 111.969Z" fill="#AAC6DD"/>
<path d="M101.5 111.103L108.194 12.7991C108.596 6.8938 115.049 3.45489 120.175 6.41439L182.825 42.5856C187.952 45.5451 188.2 52.8534 183.287 56.1543L101.5 111.103Z" fill="#C7D9E8"/>
<path d="M100.5 112.835L18.7137 167.783C13.8006 171.084 14.0491 178.392 19.1751 181.352L81.8255 217.523C86.9515 220.482 93.4049 217.043 93.807 211.138L100.5 112.835Z" fill="#8FB4D1"/>
</svg>
