<svg width="40" height="40" viewBox="0 0 40 40" fill="none" xmlns="http://www.w3.org/2000/svg">
<path d="M20.1301 20.1547L29.376 26.3665C32.728 28.6185 32.5584 33.6046 29.0612 35.6237C25.564 37.6429 21.1611 35.2966 20.8868 31.2677L20.1301 20.1547Z" fill="#D4E2EE"/>
<path d="M19.9516 19.8453L19.1949 8.73221C18.9206 4.70329 14.5177 2.35707 11.0205 4.3762C7.52325 6.39532 7.3537 11.3814 10.7057 13.6334L19.9516 19.8453Z" fill="#F0F6FA"/>
<path d="M19.8622 19.9999L9.85966 24.9012C6.23335 26.6781 2.00003 24.0382 2.00003 19.9999C2.00003 15.9617 6.23334 13.3218 9.85965 15.0987L19.8622 19.9999Z" fill="#B9CFE3"/>
<path d="M20.2194 19.9999L30.2219 24.9012C33.8482 26.6781 38.0815 24.0382 38.0815 19.9999C38.0815 15.9617 33.8482 13.3218 30.2219 15.0987L20.2194 19.9999Z" fill="#AAC6DD"/>
<path d="M20.1301 19.8453L20.8868 8.73221C21.1611 4.70329 25.564 2.35707 29.0612 4.3762C32.5584 6.39533 32.728 11.3814 29.376 13.6334L20.1301 19.8453Z" fill="#C7D9E8"/>
<path d="M19.9515 20.1547L10.7057 26.3665C7.35368 28.6186 7.52322 33.6047 11.0205 35.6238C14.5177 37.6429 18.9205 35.2967 19.1949 31.2678L19.9515 20.1547Z" fill="#8FB4D1"/>
</svg>
