<svg width="375" height="108" viewBox="0 0 375 108" fill="none" xmlns="http://www.w3.org/2000/svg">
<path d="M0 0H375V108H0V0Z" fill="#47637B"/>
<path d="M28.325 20.1V32H25.571V27.121H20.165V32H17.411V20.1H20.165V24.792H25.571V20.1H28.325ZM35.3055 32.136C34.3422 32.136 33.4752 31.9377 32.7045 31.541C31.9452 31.133 31.3502 30.572 30.9195 29.858C30.4888 29.144 30.2735 28.3337 30.2735 27.427C30.2735 26.5203 30.4888 25.71 30.9195 24.996C31.3502 24.282 31.9452 23.7267 32.7045 23.33C33.4752 22.922 34.3422 22.718 35.3055 22.718C36.2688 22.718 37.1302 22.922 37.8895 23.33C38.6488 23.7267 39.2438 24.282 39.6745 24.996C40.1052 25.71 40.3205 26.5203 40.3205 27.427C40.3205 28.3337 40.1052 29.144 39.6745 29.858C39.2438 30.572 38.6488 31.133 37.8895 31.541C37.1302 31.9377 36.2688 32.136 35.3055 32.136ZM35.3055 29.96C35.9855 29.96 36.5408 29.7333 36.9715 29.28C37.4135 28.8153 37.6345 28.1977 37.6345 27.427C37.6345 26.6563 37.4135 26.0443 36.9715 25.591C36.5408 25.1263 35.9855 24.894 35.3055 24.894C34.6255 24.894 34.0645 25.1263 33.6225 25.591C33.1805 26.0443 32.9595 26.6563 32.9595 27.427C32.9595 28.1977 33.1805 28.8153 33.6225 29.28C34.0645 29.7333 34.6255 29.96 35.3055 29.96ZM56.5321 22.854L53.2171 32H50.6671L48.6101 26.322L46.4851 32H43.9351L40.6371 22.854H43.1361L45.2951 29.042L47.5391 22.854H49.7831L51.9591 29.042L54.1861 22.854H56.5321ZM77.2675 22.854L73.9525 32H71.4025L69.3455 26.322L67.2205 32H64.6705L61.3725 22.854H63.8715L66.0305 29.042L68.2745 22.854H70.5185L72.6945 29.042L74.9215 22.854H77.2675ZM81.8905 22.718C83.3072 22.718 84.3952 23.058 85.1545 23.738C85.9139 24.4067 86.2935 25.421 86.2935 26.781V32H83.8115V30.861C83.3129 31.711 82.3835 32.136 81.0235 32.136C80.3209 32.136 79.7089 32.017 79.1875 31.779C78.6775 31.541 78.2865 31.2123 78.0145 30.793C77.7425 30.3737 77.6065 29.8977 77.6065 29.365C77.6065 28.515 77.9239 27.8463 78.5585 27.359C79.2045 26.8717 80.1962 26.628 81.5335 26.628H83.6415C83.6415 26.05 83.4659 25.608 83.1145 25.302C82.7632 24.9847 82.2362 24.826 81.5335 24.826C81.0462 24.826 80.5645 24.9053 80.0885 25.064C79.6239 25.2113 79.2272 25.4153 78.8985 25.676L77.9465 23.823C78.4452 23.4717 79.0402 23.1997 79.7315 23.007C80.4342 22.8143 81.1539 22.718 81.8905 22.718ZM81.6865 30.351C82.1399 30.351 82.5422 30.249 82.8935 30.045C83.2449 29.8297 83.4942 29.518 83.6415 29.11V28.175H81.8225C80.7345 28.175 80.1905 28.532 80.1905 29.246C80.1905 29.586 80.3209 29.858 80.5815 30.062C80.8535 30.2547 81.2219 30.351 81.6865 30.351ZM91.7707 32.136C91.0114 32.136 90.2691 32.0453 89.5437 31.864C88.8184 31.6713 88.2404 31.4333 87.8097 31.15L88.6937 29.246C89.1017 29.5067 89.5947 29.722 90.1727 29.892C90.7507 30.0507 91.3174 30.13 91.8727 30.13C92.9947 30.13 93.5557 29.8523 93.5557 29.297C93.5557 29.0363 93.4027 28.8493 93.0967 28.736C92.7907 28.6227 92.3204 28.5263 91.6857 28.447C90.9377 28.3337 90.3201 28.2033 89.8327 28.056C89.3454 27.9087 88.9204 27.648 88.5577 27.274C88.2064 26.9 88.0307 26.3673 88.0307 25.676C88.0307 25.098 88.1951 24.588 88.5237 24.146C88.8637 23.6927 89.3511 23.3413 89.9857 23.092C90.6317 22.8427 91.3911 22.718 92.2637 22.718C92.9097 22.718 93.5501 22.7917 94.1847 22.939C94.8307 23.075 95.3634 23.2677 95.7827 23.517L94.8987 25.404C94.0941 24.9507 93.2157 24.724 92.2637 24.724C91.6971 24.724 91.2721 24.8033 90.9887 24.962C90.7054 25.1207 90.5637 25.3247 90.5637 25.574C90.5637 25.8573 90.7167 26.0557 91.0227 26.169C91.3287 26.2823 91.8161 26.39 92.4847 26.492C93.2327 26.6167 93.8447 26.7527 94.3207 26.9C94.7967 27.036 95.2104 27.291 95.5617 27.665C95.9131 28.039 96.0887 28.5603 96.0887 29.229C96.0887 29.7957 95.9187 30.3 95.5787 30.742C95.2387 31.184 94.7401 31.5297 94.0827 31.779C93.4367 32.017 92.6661 32.136 91.7707 32.136ZM111.617 22.854L107.486 32.561C107.067 33.615 106.546 34.3573 105.922 34.788C105.31 35.2187 104.568 35.434 103.695 35.434C103.219 35.434 102.749 35.3603 102.284 35.213C101.82 35.0657 101.44 34.8617 101.145 34.601L102.114 32.714C102.318 32.8953 102.551 33.037 102.811 33.139C103.083 33.241 103.35 33.292 103.61 33.292C103.973 33.292 104.268 33.2013 104.494 33.02C104.721 32.85 104.925 32.561 105.106 32.153L105.14 32.068L101.179 22.854H103.916L106.483 29.059L109.067 22.854H111.617ZM116.803 32.136C115.839 32.136 114.972 31.9377 114.202 31.541C113.442 31.133 112.847 30.572 112.417 29.858C111.986 29.144 111.771 28.3337 111.771 27.427C111.771 26.5203 111.986 25.71 112.417 24.996C112.847 24.282 113.442 23.7267 114.202 23.33C114.972 22.922 115.839 22.718 116.803 22.718C117.766 22.718 118.627 22.922 119.387 23.33C120.146 23.7267 120.741 24.282 121.172 24.996C121.602 25.71 121.818 26.5203 121.818 27.427C121.818 28.3337 121.602 29.144 121.172 29.858C120.741 30.572 120.146 31.133 119.387 31.541C118.627 31.9377 117.766 32.136 116.803 32.136ZM116.803 29.96C117.483 29.96 118.038 29.7333 118.469 29.28C118.911 28.8153 119.132 28.1977 119.132 27.427C119.132 26.6563 118.911 26.0443 118.469 25.591C118.038 25.1263 117.483 24.894 116.803 24.894C116.123 24.894 115.562 25.1263 115.12 25.591C114.678 26.0443 114.457 26.6563 114.457 27.427C114.457 28.1977 114.678 28.8153 115.12 29.28C115.562 29.7333 116.123 29.96 116.803 29.96ZM132.804 22.854V32H130.288V30.912C129.937 31.3087 129.518 31.6147 129.03 31.83C128.543 32.034 128.016 32.136 127.449 32.136C126.248 32.136 125.296 31.7903 124.593 31.099C123.891 30.4077 123.539 29.382 123.539 28.022V22.854H126.191V27.631C126.191 29.1043 126.809 29.841 128.044 29.841C128.679 29.841 129.189 29.637 129.574 29.229C129.96 28.8097 130.152 28.192 130.152 27.376V22.854H132.804ZM137.794 24.061C138.111 23.619 138.536 23.2847 139.069 23.058C139.613 22.8313 140.236 22.718 140.939 22.718V25.166C140.644 25.1433 140.446 25.132 140.344 25.132C139.585 25.132 138.99 25.3473 138.559 25.778C138.128 26.1973 137.913 26.832 137.913 27.682V32H135.261V22.854H137.794V24.061ZM150.474 32.136C149.715 32.136 148.972 32.0453 148.247 31.864C147.522 31.6713 146.944 31.4333 146.513 31.15L147.397 29.246C147.805 29.5067 148.298 29.722 148.876 29.892C149.454 30.0507 150.021 30.13 150.576 30.13C151.698 30.13 152.259 29.8523 152.259 29.297C152.259 29.0363 152.106 28.8493 151.8 28.736C151.494 28.6227 151.024 28.5263 150.389 28.447C149.641 28.3337 149.023 28.2033 148.536 28.056C148.049 27.9087 147.624 27.648 147.261 27.274C146.91 26.9 146.734 26.3673 146.734 25.676C146.734 25.098 146.898 24.588 147.227 24.146C147.567 23.6927 148.054 23.3413 148.689 23.092C149.335 22.8427 150.094 22.718 150.967 22.718C151.613 22.718 152.253 22.7917 152.888 22.939C153.534 23.075 154.067 23.2677 154.486 23.517L153.602 25.404C152.797 24.9507 151.919 24.724 150.967 24.724C150.4 24.724 149.975 24.8033 149.692 24.962C149.409 25.1207 149.267 25.3247 149.267 25.574C149.267 25.8573 149.42 26.0557 149.726 26.169C150.032 26.2823 150.519 26.39 151.188 26.492C151.936 26.6167 152.548 26.7527 153.024 26.9C153.5 27.036 153.914 27.291 154.265 27.665C154.616 28.039 154.792 28.5603 154.792 29.229C154.792 29.7957 154.622 30.3 154.282 30.742C153.942 31.184 153.443 31.5297 152.786 31.779C152.14 32.017 151.369 32.136 150.474 32.136ZM161.987 22.718C163.12 22.718 164.033 23.058 164.724 23.738C165.427 24.418 165.778 25.4267 165.778 26.764V32H163.126V27.172C163.126 26.4467 162.967 25.9083 162.65 25.557C162.333 25.1943 161.874 25.013 161.273 25.013C160.604 25.013 160.072 25.2227 159.675 25.642C159.278 26.05 159.08 26.662 159.08 27.478V32H156.428V19.386H159.08V23.806C159.431 23.4547 159.856 23.1883 160.355 23.007C160.854 22.8143 161.398 22.718 161.987 22.718ZM168.182 22.854H170.834V32H168.182V22.854ZM169.508 21.579C169.021 21.579 168.624 21.4373 168.318 21.154C168.012 20.8707 167.859 20.5193 167.859 20.1C167.859 19.6807 168.012 19.3293 168.318 19.046C168.624 18.7627 169.021 18.621 169.508 18.621C169.995 18.621 170.392 18.757 170.698 19.029C171.004 19.301 171.157 19.641 171.157 20.049C171.157 20.491 171.004 20.8593 170.698 21.154C170.392 21.4373 169.995 21.579 169.508 21.579ZM176.202 23.058H178.548V25.098H176.27V32H173.618V25.098H172.207V23.058H173.618V22.65C173.618 21.6073 173.924 20.78 174.536 20.168C175.16 19.556 176.032 19.25 177.154 19.25C177.551 19.25 177.925 19.2953 178.276 19.386C178.639 19.4653 178.939 19.5843 179.177 19.743L178.48 21.664C178.174 21.4487 177.817 21.341 177.409 21.341C176.605 21.341 176.202 21.783 176.202 22.667V23.058ZM185.769 31.558C185.508 31.7507 185.185 31.898 184.8 32C184.426 32.0907 184.029 32.136 183.61 32.136C182.522 32.136 181.677 31.8583 181.077 31.303C180.487 30.7477 180.193 29.9317 180.193 28.855V25.098H178.782V23.058H180.193V20.831H182.845V23.058H185.123V25.098H182.845V28.821C182.845 29.2063 182.941 29.5067 183.134 29.722C183.338 29.926 183.621 30.028 183.984 30.028C184.403 30.028 184.76 29.9147 185.055 29.688L185.769 31.558ZM197.971 31.558C197.71 31.7507 197.387 31.898 197.002 32C196.628 32.0907 196.231 32.136 195.812 32.136C194.724 32.136 193.879 31.8583 193.279 31.303C192.689 30.7477 192.395 29.9317 192.395 28.855V25.098H190.984V23.058H192.395V20.831H195.047V23.058H197.325V25.098H195.047V28.821C195.047 29.2063 195.143 29.5067 195.336 29.722C195.54 29.926 195.823 30.028 196.186 30.028C196.605 30.028 196.962 29.9147 197.257 29.688L197.971 31.558ZM203.529 32.136C202.566 32.136 201.699 31.9377 200.928 31.541C200.169 31.133 199.574 30.572 199.143 29.858C198.712 29.144 198.497 28.3337 198.497 27.427C198.497 26.5203 198.712 25.71 199.143 24.996C199.574 24.282 200.169 23.7267 200.928 23.33C201.699 22.922 202.566 22.718 203.529 22.718C204.492 22.718 205.354 22.922 206.113 23.33C206.872 23.7267 207.467 24.282 207.898 24.996C208.329 25.71 208.544 26.5203 208.544 27.427C208.544 28.3337 208.329 29.144 207.898 29.858C207.467 30.572 206.872 31.133 206.113 31.541C205.354 31.9377 204.492 32.136 203.529 32.136ZM203.529 29.96C204.209 29.96 204.764 29.7333 205.195 29.28C205.637 28.8153 205.858 28.1977 205.858 27.427C205.858 26.6563 205.637 26.0443 205.195 25.591C204.764 25.1263 204.209 24.894 203.529 24.894C202.849 24.894 202.288 25.1263 201.846 25.591C201.404 26.0443 201.183 26.6563 201.183 27.427C201.183 28.1977 201.404 28.8153 201.846 29.28C202.288 29.7333 202.849 29.96 203.529 29.96ZM219.633 19.386V32H217.1V30.946C216.442 31.7393 215.49 32.136 214.244 32.136C213.382 32.136 212.6 31.9433 211.898 31.558C211.206 31.1727 210.662 30.623 210.266 29.909C209.869 29.195 209.671 28.3677 209.671 27.427C209.671 26.4863 209.869 25.659 210.266 24.945C210.662 24.231 211.206 23.6813 211.898 23.296C212.6 22.9107 213.382 22.718 214.244 22.718C215.411 22.718 216.323 23.0863 216.981 23.823V19.386H219.633ZM214.703 29.96C215.371 29.96 215.927 29.7333 216.369 29.28C216.811 28.8153 217.032 28.1977 217.032 27.427C217.032 26.6563 216.811 26.0443 216.369 25.591C215.927 25.1263 215.371 24.894 214.703 24.894C214.023 24.894 213.462 25.1263 213.02 25.591C212.578 26.0443 212.357 26.6563 212.357 27.427C212.357 28.1977 212.578 28.8153 213.02 29.28C213.462 29.7333 214.023 29.96 214.703 29.96ZM225.776 22.718C227.193 22.718 228.281 23.058 229.04 23.738C229.8 24.4067 230.179 25.421 230.179 26.781V32H227.697V30.861C227.199 31.711 226.269 32.136 224.909 32.136C224.207 32.136 223.595 32.017 223.073 31.779C222.563 31.541 222.172 31.2123 221.9 30.793C221.628 30.3737 221.492 29.8977 221.492 29.365C221.492 28.515 221.81 27.8463 222.444 27.359C223.09 26.8717 224.082 26.628 225.419 26.628H227.527C227.527 26.05 227.352 25.608 227 25.302C226.649 24.9847 226.122 24.826 225.419 24.826C224.932 24.826 224.45 24.9053 223.974 25.064C223.51 25.2113 223.113 25.4153 222.784 25.676L221.832 23.823C222.331 23.4717 222.926 23.1997 223.617 23.007C224.32 22.8143 225.04 22.718 225.776 22.718ZM225.572 30.351C226.026 30.351 226.428 30.249 226.779 30.045C227.131 29.8297 227.38 29.518 227.527 29.11V28.175H225.708C224.62 28.175 224.076 28.532 224.076 29.246C224.076 29.586 224.207 29.858 224.467 30.062C224.739 30.2547 225.108 30.351 225.572 30.351ZM241.491 22.854L237.36 32.561C236.941 33.615 236.42 34.3573 235.796 34.788C235.184 35.2187 234.442 35.434 233.569 35.434C233.093 35.434 232.623 35.3603 232.158 35.213C231.694 35.0657 231.314 34.8617 231.019 34.601L231.988 32.714C232.192 32.8953 232.425 33.037 232.685 33.139C232.957 33.241 233.224 33.292 233.484 33.292C233.847 33.292 234.142 33.2013 234.368 33.02C234.595 32.85 234.799 32.561 234.98 32.153L235.014 32.068L231.053 22.854H233.79L236.357 29.059L238.941 22.854H241.491ZM245.653 27.869C245.653 27.2797 245.783 26.7923 246.044 26.407C246.316 26.0217 246.707 25.5967 247.217 25.132C247.591 24.792 247.863 24.5087 248.033 24.282C248.214 24.044 248.305 23.7777 248.305 23.483C248.305 23.0637 248.135 22.735 247.795 22.497C247.466 22.2477 247.024 22.123 246.469 22.123C245.936 22.123 245.46 22.2363 245.041 22.463C244.633 22.6783 244.287 22.9843 244.004 23.381L241.947 22.174C242.423 21.4487 243.063 20.8877 243.868 20.491C244.684 20.0943 245.647 19.896 246.758 19.896C248.061 19.896 249.104 20.1737 249.886 20.729C250.679 21.2843 251.076 22.055 251.076 23.041C251.076 23.5057 250.997 23.9137 250.838 24.265C250.691 24.6163 250.504 24.9167 250.277 25.166C250.062 25.404 249.778 25.6817 249.427 25.999C249.008 26.373 248.702 26.6903 248.509 26.951C248.316 27.2003 248.22 27.5063 248.22 27.869H245.653ZM246.945 32.136C246.48 32.136 246.089 31.9887 245.772 31.694C245.466 31.388 245.313 31.0197 245.313 30.589C245.313 30.1583 245.466 29.8013 245.772 29.518C246.078 29.2233 246.469 29.076 246.945 29.076C247.421 29.076 247.812 29.2233 248.118 29.518C248.424 29.8013 248.577 30.1583 248.577 30.589C248.577 31.0197 248.418 31.388 248.101 31.694C247.795 31.9887 247.41 32.136 246.945 32.136Z" fill="#F6F6F6"/>
<g opacity="0.2">
<path opacity="0.6" fill-rule="evenodd" clip-rule="evenodd" d="M232.047 43C229.812 43 228 44.8119 228 47.047V80.4348C228 82.6699 229.812 84.4818 232.047 84.4818H275.552V93.3927C275.552 94.5067 277.09 94.8028 277.503 93.7684L281.068 84.8575C281.118 84.7326 281.141 84.6056 281.141 84.4818H297.811C300.046 84.4818 301.858 82.6699 301.858 80.4348V47.047C301.858 44.8119 300.046 43 297.811 43H232.047Z" fill="white"/>
<path opacity="0.6" fill-rule="evenodd" clip-rule="evenodd" d="M302.036 37.4493C298.793 37.4493 296.163 40.0786 296.163 43.3219V53.3891C296.163 56.6325 298.793 59.2617 302.036 59.2617H330.613V64.1795C330.613 65.06 331.796 65.3459 332.198 64.5626L334.919 59.2617H340.127C343.371 59.2617 346 56.6325 346 53.3891V43.3219C346 40.0786 343.371 37.4493 340.127 37.4493H302.036Z" fill="white"/>
<path opacity="0.5" fill-rule="evenodd" clip-rule="evenodd" d="M188.543 48C185.482 48 183 50.4818 183 53.5434V73.6665C183 76.728 185.482 79.2098 188.543 79.2098L220.552 79.2098V87.4027C220.552 88.4269 221.965 88.6991 222.346 87.7481L225.623 79.5553C225.669 79.4405 225.69 79.3237 225.69 79.2098H233.025C236.087 79.2098 238.569 76.728 238.569 73.6665V53.5434C238.569 50.4818 236.087 48 233.025 48H188.543Z" fill="white"/>
<path opacity="0.7" fill-rule="evenodd" clip-rule="evenodd" d="M301.029 62.329C293.313 62.329 287.058 68.5841 287.058 76.3002C287.058 83.9639 293.228 90.1863 300.872 90.2705V93.6757C300.872 94.8406 302.504 95.1056 302.873 94.0004L304.189 90.053C304.205 90.0033 304.218 89.9534 304.227 89.9038C310.402 88.4578 315 82.916 315 76.3002C315 68.5841 308.745 62.329 301.029 62.329Z" fill="white"/>
<path opacity="0.9" fill-rule="evenodd" clip-rule="evenodd" d="M222.691 65C230.805 65 237.382 71.5775 237.382 79.6912C237.382 87.8049 230.805 94.3823 222.691 94.3823C222.286 94.3823 221.884 94.3659 221.486 94.3336L220.613 96.5167C220.275 97.3621 219.018 97.1201 219.018 96.2096V93.9195C212.682 92.2886 208 86.5366 208 79.6912C208 71.5775 214.577 65 222.691 65Z" fill="white"/>
</g>
<g opacity="0.2">
<path opacity="0.6" fill-rule="evenodd" clip-rule="evenodd" d="M139.953 40C142.188 40 144 41.8119 144 44.047V77.4348C144 79.6699 142.188 81.4818 139.953 81.4818H96.4477V90.3927C96.4477 91.5067 94.9103 91.8028 94.4965 90.7684L90.9322 81.8575C90.8822 81.7326 90.8589 81.6056 90.8588 81.4818H74.1892C71.9541 81.4818 70.1422 79.6699 70.1422 77.4348V44.047C70.1422 41.8119 71.9541 40 74.1892 40H139.953Z" fill="white"/>
<path opacity="0.6" fill-rule="evenodd" clip-rule="evenodd" d="M69.9641 45.4493C73.2074 45.4493 75.8367 48.0786 75.8367 51.3219V61.3891C75.8367 64.6325 73.2074 67.2617 69.9641 67.2617H41.3869V72.1795C41.3869 73.06 40.2037 73.3459 39.8016 72.5626L37.0807 67.2617H31.8726C28.6292 67.2617 26 64.6325 26 61.3891V51.3219C26 48.0786 28.6292 45.4493 31.8726 45.4493H69.9641Z" fill="white"/>
<path opacity="0.5" fill-rule="evenodd" clip-rule="evenodd" d="M161.025 55C164.087 55 166.569 57.4818 166.569 60.5434V80.6665C166.569 83.728 164.087 86.2098 161.025 86.2098L129.017 86.2098V94.4027C129.017 95.4269 127.603 95.6991 127.223 94.7481L123.946 86.5553C123.9 86.4405 123.879 86.3237 123.879 86.2098H116.543C113.482 86.2098 111 83.728 111 80.6665V60.5434C111 57.4818 113.482 55 116.543 55H161.025Z" fill="white"/>
<path opacity="0.7" fill-rule="evenodd" clip-rule="evenodd" d="M70.9712 64.329C78.6873 64.329 84.9424 70.5841 84.9424 78.3002C84.9424 85.9639 78.772 92.1863 71.1283 92.2705V95.6757C71.1283 96.8406 69.4956 97.1056 69.1272 96.0004L67.8114 92.053C67.7948 92.0033 67.7822 91.9534 67.7735 91.9038C61.5984 90.4578 57 84.916 57 78.3002C57 70.5841 63.2551 64.329 70.9712 64.329Z" fill="white"/>
</g>
<rect x="127" y="44" width="120" height="40" rx="20" fill="#EABB57"/>
<path d="M160.639 60.5288H156.482V58.0791H167.803V60.5288H163.646V71.0698H160.639V60.5288ZM177.982 66.1148C177.982 66.1519 177.963 66.4117 177.926 66.8942H170.373C170.509 67.5128 170.83 68.0015 171.338 68.3603C171.845 68.7191 172.476 68.8985 173.231 68.8985C173.75 68.8985 174.208 68.8242 174.604 68.6758C175.012 68.5149 175.39 68.2675 175.736 67.9335L177.276 69.6037C176.336 70.6801 174.963 71.2182 173.156 71.2182C172.031 71.2182 171.035 71.0017 170.169 70.5687C169.302 70.1233 168.634 69.5109 168.164 68.7315C167.694 67.952 167.459 67.0674 167.459 66.0776C167.459 65.1002 167.688 64.2218 168.146 63.4424C168.616 62.6506 169.253 62.0381 170.057 61.6051C170.874 61.1597 171.783 60.937 172.785 60.937C173.763 60.937 174.647 61.1474 175.439 61.568C176.231 61.9887 176.849 62.5949 177.295 63.3867C177.753 64.1662 177.982 65.0755 177.982 66.1148ZM172.804 63.1269C172.148 63.1269 171.598 63.3125 171.152 63.6836C170.707 64.0548 170.435 64.5621 170.336 65.2054H175.253C175.154 64.5744 174.882 64.0734 174.437 63.7022C173.992 63.3187 173.447 63.1269 172.804 63.1269ZM179.909 57.2996H182.804V71.0698H179.909V57.2996ZM185.491 57.2996H188.386V71.0698H185.491V57.2996ZM206.387 61.0855V71.0698H203.64V69.8821C203.257 70.3151 202.799 70.6491 202.267 70.8842C201.735 71.1069 201.16 71.2182 200.541 71.2182C199.23 71.2182 198.191 70.8409 197.423 70.0862C196.656 69.3315 196.273 68.2118 196.273 66.7272V61.0855H199.168V66.3003C199.168 67.9087 199.842 68.7129 201.191 68.7129C201.884 68.7129 202.44 68.4902 202.861 68.0448C203.282 67.587 203.492 66.9128 203.492 66.022V61.0855H206.387ZM212.428 71.2182C211.599 71.2182 210.789 71.1193 209.997 70.9213C209.205 70.711 208.574 70.4512 208.104 70.1419L209.069 68.0634C209.515 68.3479 210.053 68.583 210.684 68.7686C211.315 68.9418 211.933 69.0284 212.54 69.0284C213.764 69.0284 214.377 68.7253 214.377 68.119C214.377 67.8345 214.21 67.6303 213.876 67.5066C213.542 67.3829 213.028 67.2777 212.335 67.1911C211.519 67.0674 210.845 66.9251 210.313 66.7643C209.781 66.6035 209.317 66.3189 208.921 65.9106C208.537 65.5023 208.345 64.9208 208.345 64.1662C208.345 63.5352 208.525 62.9784 208.884 62.4959C209.255 62.001 209.787 61.6175 210.48 61.3453C211.185 61.0731 212.014 60.937 212.966 60.937C213.672 60.937 214.371 61.0175 215.063 61.1783C215.769 61.3268 216.35 61.5371 216.808 61.8093L215.843 63.8692C214.964 63.3743 214.006 63.1269 212.966 63.1269C212.348 63.1269 211.884 63.2135 211.575 63.3867C211.265 63.5599 211.111 63.7826 211.111 64.0548C211.111 64.3641 211.278 64.5806 211.612 64.7043C211.946 64.8281 212.478 64.9456 213.208 65.0569C214.024 65.193 214.692 65.3415 215.212 65.5023C215.732 65.6508 216.183 65.9292 216.567 66.3375C216.95 66.7457 217.142 67.3148 217.142 68.0448C217.142 68.6634 216.956 69.214 216.585 69.6965C216.214 70.179 215.67 70.5563 214.952 70.8285C214.247 71.0883 213.406 71.2182 212.428 71.2182Z" fill="white"/>
<path d="M155.628 84H165.628V98L155.628 84Z" fill="#EABB57"/>
</svg>
