<svg width="48" height="48" viewBox="0 0 48 48" fill="none" xmlns="http://www.w3.org/2000/svg">
<path d="M24.1562 24.1856L41.8116 36.0474C42.8071 36.7162 42.7568 38.197 41.7181 38.7967L28.0288 46.7003C26.9901 47.2999 25.6825 46.6031 25.6011 45.4066L24.1562 24.1856Z" fill="#D4E2EE"/>
<path d="M23.9418 23.8143L22.4969 2.59333C22.4155 1.39679 21.1079 0.699995 20.0692 1.29965L6.37984 9.20323C5.34121 9.80288 5.29085 11.2837 6.28635 11.9525L23.9418 23.8143Z" fill="#F0F6FA"/>
<path d="M23.8346 24L4.73424 33.3591C3.65727 33.8868 2.40004 33.1028 2.40004 31.9035V16.0964C2.40004 14.8971 3.65727 14.1131 4.73424 14.6408L23.8346 24Z" fill="#B9CFE3"/>
<path d="M24.2633 24L43.3637 33.3591C44.4406 33.8868 45.6979 33.1028 45.6979 31.9035V16.0964C45.6979 14.8971 44.4406 14.1131 43.3637 14.6408L24.2633 24Z" fill="#AAC6DD"/>
<path d="M24.1562 23.8143L25.6011 2.59333C25.6826 1.39679 26.9902 0.699998 28.0288 1.29965L41.7182 9.20323C42.7568 9.80288 42.8072 11.2837 41.8117 11.9525L24.1562 23.8143Z" fill="#C7D9E8"/>
<path d="M23.9418 24.1857L6.28637 36.0475C5.29088 36.7163 5.34123 38.1971 6.37986 38.7968L20.0693 46.7003C21.1079 47.3 22.4155 46.6032 22.497 45.4067L23.9418 24.1857Z" fill="#8FB4D1"/>
</svg>
